<svg width="81" height="41" viewBox="0 0 81 41" fill="none" xmlns="http://www.w3.org/2000/svg">
<g filter="url(#filter0_b_447_92)">
<path d="M4.21544 4.71634C4.50728 2.19407 6.64322 0.291016 9.18231 0.291016H74.3947C77.4164 0.291016 79.7477 2.95077 79.3515 5.94647L75.3846 35.9465C75.0558 38.4329 72.9358 40.291 70.4277 40.291H5.71124C2.72211 40.291 0.400812 37.6857 0.744369 34.7163L4.21544 4.71634Z" fill="url(#paint0_linear_447_92)"/>
<path d="M79.1652 5.92183L75.1983 35.9218C74.8819 38.3148 72.8416 40.1031 70.4277 40.1031H5.71124C2.83446 40.1031 0.600398 37.5957 0.931044 34.7379L4.40212 4.73794C4.68298 2.31047 6.73865 0.478935 9.18231 0.478935H74.3947C77.3029 0.478935 79.5465 3.03873 79.1652 5.92183Z" stroke="url(#paint1_linear_447_92)" stroke-width="0.375839"/>
</g>
<path fill-rule="evenodd" clip-rule="evenodd" d="M46.0996 24.9609H47.494C47.7395 25.0047 47.9544 25.1363 48.1047 25.3218V34.599H46.0996V34.3306H46.3642C46.8086 34.3306 47.1383 34.1869 47.3535 33.8994C47.5686 33.6121 47.6762 33.1718 47.6762 32.5782V26.9677C47.6762 26.3695 47.5686 25.929 47.3552 25.6441C47.1419 25.3591 46.8121 25.2154 46.3642 25.2154H46.0996V24.9609V24.9609ZM51.6963 25.2917C53.5311 25.3641 55.0017 27.3446 55.0017 29.7776C55.0017 32.2104 53.531 34.191 51.6963 34.2633V34.2615C53.0468 34.1649 54.125 32.1945 54.125 29.7776C54.125 27.3606 53.0467 25.3902 51.6963 25.2936V25.2917ZM48.5861 24.9609H50.8909C51.6704 24.9609 52.3493 25.0905 52.9295 25.3497C53.5097 25.6111 53.9981 26.0092 54.395 26.5462C54.7529 27.0125 55.0297 27.5353 55.2238 28.1196C55.4196 28.7037 55.5165 29.3043 55.5165 29.9214C55.5165 30.5973 55.4107 31.2238 55.2009 31.7986C54.991 32.3732 54.6947 32.8702 54.3103 33.2871C53.9258 33.7064 53.4692 34.0291 52.9436 34.2575C52.4164 34.4861 51.8447 34.599 51.2312 34.599H48.586V24.961L48.5861 24.9609ZM49.1998 25.2154V34.3306H50.5965C50.9915 34.3306 51.3282 34.2999 51.6034 34.241C51.8802 34.1822 52.1201 34.0831 52.3282 33.9466C52.5344 33.8123 52.7144 33.6334 52.8695 33.4119C53.4426 32.6347 53.7283 31.4382 53.7283 29.8248C53.7283 29.2949 53.6931 28.7955 53.6226 28.3245C53.552 27.8534 53.4497 27.4365 53.3139 27.0784C53.18 26.7205 53.0124 26.4048 52.8078 26.1339C52.6386 25.9125 52.4481 25.7336 52.2364 25.5993C52.0249 25.4626 51.7797 25.3638 51.5029 25.3049C51.2259 25.2459 50.8928 25.2153 50.503 25.2153H49.1998L49.1998 25.2154Z" fill="#323232"/>
<path d="M18.9759 5.03809H20.7758L28.8934 16.8095V17.5286H28.6865L21.0704 6.56089V13.906C21.0704 14.619 21.1308 15.19 21.2538 15.619C21.3765 16.0451 21.5749 16.3804 21.8485 16.6221C22.0727 16.8125 22.3421 16.9333 22.6632 16.9847C22.8399 17.027 23.0919 17.0573 23.4217 17.0754V17.4017H18.8186V17.0754C19.2885 17.0391 19.674 16.9213 19.9692 16.7249C20.2668 16.5254 20.4844 16.2324 20.6267 15.8426C20.7668 15.4559 20.8379 14.9695 20.8379 14.3924V7.40079C20.8379 6.96876 20.7689 6.60314 20.6331 6.30404C20.4953 6.0019 20.2969 5.76937 20.0361 5.60921C19.7754 5.44596 19.4608 5.36446 19.0901 5.36446H18.9759V5.03809V5.03809ZM21.5317 5.03809H22.5187L28.6476 13.9392V8.61248C28.6476 7.96294 28.5679 7.39486 28.4106 6.90845C28.2533 6.42191 28.027 6.05032 27.7275 5.79949C27.568 5.65755 27.4063 5.55482 27.2447 5.49739C27.0831 5.43703 26.8567 5.39473 26.5658 5.3645V5.03813H30.9363V5.34635H27.6351L27.6356 5.34687C28.4657 5.44288 28.9388 6.23942 28.9379 7.78436C28.9081 8.06148 28.8935 8.36172 28.8933 8.68501L28.8863 15.5798L21.5316 5.03813L21.5317 5.03809Z" fill="#323232"/>
<path d="M41.7554 5.03824H43.3064L47.4515 17.0521L47.266 17.6376L47.0461 17.6557L43.6304 7.21371C43.2275 5.98095 42.7037 5.36465 42.0658 5.36465H41.7554V5.03828L41.7554 5.03824ZM43.9513 5.03809L46.9125 5.03824V5.36462H46.2811C45.9965 5.36462 45.7704 5.44612 45.6066 5.61237C45.4427 5.7785 45.3608 6.01119 45.3608 6.31033C45.3608 6.59429 45.4213 6.92959 45.544 7.31944L47.9491 14.7188L49.9683 8.33773C50.1278 7.84819 50.2097 7.42526 50.2097 7.07169C50.2097 6.56401 50.0954 6.16222 49.8715 5.86012C49.645 5.55798 49.3325 5.39485 48.934 5.36462V5.03824H52.4877V5.36462C52.1514 5.41896 51.8496 5.55498 51.5846 5.77549C51.3196 5.99613 51.0782 6.3163 50.8583 6.73026C50.6406 7.14723 50.4188 7.70012 50.1968 8.39208L47.6984 16.2476L43.9513 5.03809V5.03809Z" fill="#323232"/>
<path d="M37.3955 24.961H38.4875C38.8677 25.081 39.1507 25.4186 39.1888 25.8268V34.599H37.4042L37.3955 34.3448H37.5912C38.4659 34.3448 38.9032 33.7558 38.9032 32.5782V26.9677C38.9032 26.3695 38.7956 25.929 38.5823 25.6441C38.3689 25.3591 38.0391 25.2154 37.5912 25.2154H37.3955V24.9609V24.961ZM39.6515 24.961H43.3055L43.3167 24.9728C44.0675 25.0289 44.6725 25.6667 44.7584 26.4775L44.7589 26.478V24.961H45.0716V28.6896H44.9166C44.7755 28.0371 44.6486 27.5496 44.5374 27.2245C44.4246 26.9018 44.2799 26.5933 44.1001 26.306C43.8832 25.9598 43.6468 25.7147 43.393 25.5664C42.9679 25.3332 42.453 25.2154 41.8481 25.2154H40.4268V29.7942H40.8095C41.3773 29.7942 41.8287 29.4668 42.162 28.8144C42.3348 28.48 42.4618 28.0796 42.5447 27.6155C42.5869 27.4177 42.6239 27.1257 42.6593 26.7394H42.8392V33.061H42.6593C42.617 32.7219 42.5675 32.4016 42.5111 32.1002C42.4547 31.7987 42.3912 31.5537 42.3207 31.3654C42.2503 31.1768 42.1584 30.9885 42.0492 30.8C41.7388 30.2889 41.2979 30.0346 40.7265 30.0346H40.4268V34.3448H41.6153C41.9662 34.3448 42.2819 34.3118 42.5622 34.2459C42.8443 34.1776 43.0967 34.0739 43.3206 33.935C43.5446 33.7937 43.7543 33.6122 43.9502 33.3862C44.287 33.0047 44.5496 32.5289 44.7349 31.9588C44.8424 31.6315 44.9536 31.191 45.0716 30.6352H45.2621V34.5991H44.9009V33.0829L44.9004 33.0834C44.8145 33.8943 44.2095 34.5321 43.4587 34.5882L43.4482 34.5991H39.6514V24.9611L39.6515 24.961Z" fill="#323232"/>
<path d="M24.8115 24.9604H26.0784L28.8115 34.5317L28.7281 34.8104H28.5253L26.4391 27.1816C26.2558 26.4868 26.0512 25.985 25.8237 25.6765C25.5962 25.3679 25.3194 25.2148 24.9931 25.2148H24.8115V24.9604V24.9604ZM26.5192 24.9751L28.5677 24.9604L28.5783 25.2148C28.2713 25.2195 28.0457 25.2737 27.9028 25.3797C27.76 25.4857 27.6895 25.6506 27.6895 25.8766C27.6895 26.098 27.7195 26.3313 27.7829 26.5738L29.3066 32.2102L30.779 27.3182C30.6573 26.8495 30.5516 26.5056 30.4599 26.2841C30.37 26.0628 30.2535 25.8626 30.1125 25.6837C29.9872 25.5093 29.8602 25.3867 29.7263 25.3185C29.5941 25.2502 29.4335 25.2148 29.2449 25.2148V24.9604H30.337L33.0965 34.6237L33.0415 34.8105H32.8494L30.876 27.6314L29.0367 33.7558L26.5192 24.9751V24.9751ZM30.7976 24.9531L33.1597 24.9604V25.2149H32.9693C32.6589 25.2149 32.4173 25.2855 32.2462 25.4245C32.0734 25.5658 31.987 25.7684 31.987 26.0368C31.987 26.2158 32.0116 26.3855 32.0593 26.5456L33.6146 32.2102L35.1383 27.0214C35.2141 26.741 35.2529 26.4891 35.2529 26.263C35.2529 25.9191 35.1506 25.66 34.9497 25.4905C34.7486 25.3208 34.4382 25.229 34.0166 25.2148L34.0079 24.9604H36.9052V25.2148C36.7131 25.2336 36.5561 25.2737 36.4379 25.335C36.3197 25.3986 36.1893 25.4999 36.0482 25.6435C35.759 25.945 35.5121 26.4349 35.3093 27.1109L33.3025 33.9402L30.7975 24.9531H30.7976Z" fill="#323232"/>
<path fill-rule="evenodd" clip-rule="evenodd" d="M19.1488 20.2649C18.5833 20.2649 18.1248 20.7435 18.1248 21.3338C18.1248 21.9241 18.5833 22.4027 19.1488 22.4027C19.6763 22.4027 20.1105 21.9865 20.1666 21.4516H36.7982C36.8323 21.8885 37.0164 22.2811 37.2963 22.5733C37.6076 22.898 38.0377 23.0992 38.5128 23.0992C38.9878 23.0992 39.418 22.8981 39.7292 22.5733L39.7385 22.5634C39.8282 22.711 39.933 22.8476 40.0508 22.9705C40.4594 23.3969 41.0241 23.6609 41.6478 23.6609C42.2713 23.6609 42.8362 23.3969 43.2448 22.97C43.6301 22.5679 43.8768 22.0209 43.9038 21.4143H60.5267C60.5828 21.9493 61.017 22.3654 61.5444 22.3654C62.11 22.3654 62.5685 21.8869 62.5685 21.2966C62.5685 20.7063 62.11 20.2277 61.5444 20.2277C61.0124 20.2277 60.5752 20.6512 60.5252 21.1928H43.9038C43.8768 20.5863 43.6301 20.0393 43.2444 19.6367C42.8358 19.2103 42.2711 18.9463 41.6478 18.9463C41.0245 18.9463 40.4598 19.2103 40.0508 19.6367C39.933 19.7596 39.8282 19.8962 39.7385 20.0438L39.7292 20.0339C39.4179 19.7092 38.9878 19.508 38.5128 19.508C38.0377 19.508 37.6076 19.7091 37.2963 20.0339C37.0007 20.3426 36.812 20.7634 36.7939 21.2301H20.1681C20.1181 20.6885 19.6809 20.2649 19.1488 20.2649V20.2649ZM39.8843 22.3876C40.1031 22.0864 40.2332 21.7108 40.2332 21.3036C40.2332 20.8963 40.1032 20.5208 39.8843 20.2196C39.9723 20.0636 40.0788 19.9203 40.2007 19.7931C40.5709 19.4069 41.0827 19.1678 41.6479 19.1678C42.213 19.1678 42.7249 19.4069 43.0951 19.7931C43.4651 20.1795 43.6942 20.7138 43.6942 21.3036C43.6942 21.8936 43.4651 22.4278 43.0949 22.8139C42.7247 23.2003 42.2129 23.4394 41.6479 23.4394C41.0828 23.4394 40.5711 23.2003 40.2009 22.8139C40.0791 22.6868 39.9723 22.5436 39.8843 22.3877V22.3876ZM39.6292 22.3618C39.4758 22.0436 39.3893 21.6841 39.3893 21.3035C39.3893 20.9231 39.4758 20.5636 39.6292 20.2453C39.613 20.2266 39.5963 20.2083 39.5792 20.1905C39.3064 19.9058 38.9292 19.7294 38.5128 19.7294C38.0964 19.7294 37.7192 19.9058 37.4464 20.1905C37.1736 20.4752 37.0046 20.869 37.0046 21.3035C37.0046 21.7381 37.1736 22.1319 37.4464 22.4166C37.7192 22.7013 38.0964 22.8776 38.5128 22.8776C38.9291 22.8776 39.3064 22.7013 39.5792 22.4166C39.5963 22.3987 39.613 22.3805 39.6292 22.3618ZM39.7749 20.4418C39.6635 20.7054 39.6016 20.997 39.6016 21.3036C39.6016 21.6103 39.6635 21.9017 39.7749 22.1653C39.9304 21.9178 40.0209 21.6217 40.0209 21.3036C40.0209 20.9855 39.9305 20.6893 39.7749 20.4418V20.4418Z" fill="#323232"/>
<path d="M57.7458 5.21879C58.569 5.21879 59.3233 5.40306 60.0085 5.77481C60.6917 6.1434 61.2865 6.68412 61.7908 7.39422C62.2174 7.99546 62.545 8.66626 62.7778 9.40656C63.0083 10.1467 63.1247 10.9021 63.1247 11.6756C63.1247 12.8388 62.8898 13.9083 62.4201 14.8874C61.9523 15.8663 61.3145 16.6427 60.5084 17.2138C60.4097 17.2837 60.31 17.3494 60.209 17.4107C61.6678 16.32 62.3954 14.7773 62.3946 11.8902C62.3935 7.75134 60.2212 5.61829 57.9997 5.53615C55.6734 5.4501 53.2926 7.60877 53.2936 11.8902C53.2943 14.8032 53.9609 16.2428 55.3749 17.3486C54.8999 17.0495 54.4703 16.6707 54.0865 16.2076C53.5951 15.6154 53.2116 14.9236 52.9357 14.1319C52.6599 13.3434 52.522 12.5155 52.522 11.6544C52.522 10.5092 52.759 9.44272 53.2353 8.44859C53.7093 7.45758 54.3473 6.67203 55.1469 6.09193C55.9442 5.50884 56.8105 5.21875 57.7458 5.21875L57.7458 5.21879ZM57.4502 5.5856C55.6191 5.9658 53.9714 8.9992 53.9714 11.9634C53.9714 15.1327 55.3013 17.125 56.7489 17.9386C57.1082 18.0272 57.4793 18.0718 57.8621 18.0718C58.2128 18.0718 58.5531 18.0334 58.8832 17.9568C60.3476 17.1611 61.7869 14.8009 61.7869 11.7681C61.7869 8.73551 60.0679 6.02814 58.3223 5.60481H58.3224C58.4064 5.6284 58.4916 5.65896 58.5776 5.69607C58.8103 5.79588 59.0128 5.92877 59.1895 6.09494C59.5472 6.40609 59.8532 6.82918 60.1054 7.36386C60.3576 7.89569 60.5515 8.52409 60.6851 9.24319C60.8208 9.96226 60.8877 10.7358 60.8877 11.5606C60.8877 12.8357 60.7649 13.9355 60.5193 14.86C60.2714 15.7876 59.9178 16.5007 59.4589 16.9991C58.9977 17.4977 58.4568 17.7455 57.8341 17.7455C57.3749 17.7455 56.9569 17.6034 56.5841 17.3195C56.2092 17.0385 55.888 16.6276 55.6186 16.0867C55.3492 15.5459 55.1424 14.9053 55.0001 14.1591C54.8557 13.4127 54.7846 12.5849 54.7846 11.6755C54.7846 10.9503 54.8299 10.2735 54.9203 9.6451C55.0109 9.01663 55.1445 8.44855 55.3234 7.93798C55.5022 7.4273 55.7177 6.98622 55.972 6.61463C56.2026 6.2732 56.4871 6.01039 56.8254 5.82299C57.0074 5.72445 57.1948 5.65192 57.3886 5.6056C57.4061 5.5984 57.4266 5.59172 57.4502 5.58552L57.4502 5.5856Z" fill="#323232"/>
<path d="M36.4337 4.81059C37.257 4.81059 38.0113 4.99486 38.6965 5.36653C39.3796 5.73511 39.9745 6.27592 40.4788 6.98593C40.9054 7.58717 41.233 8.25802 41.4657 8.99827C41.6963 9.73841 41.8127 10.4938 41.8127 11.2673C41.8127 12.4306 41.5778 13.5 41.1081 14.4791C40.6403 15.458 40.0025 16.2345 39.1964 16.8055C39.0977 16.8754 38.998 16.9411 38.897 17.0025C40.3558 15.9118 41.0834 14.369 41.0826 11.482C41.0815 7.3431 38.9092 5.21004 36.6877 5.12783C34.3613 5.04182 31.9806 7.20045 31.9817 11.482C31.9823 14.3949 32.6489 15.8345 34.0629 16.9403C33.5879 16.6412 33.1583 16.2624 32.7745 15.7993C32.2831 15.2072 31.8996 14.5153 31.6237 13.7236C31.3479 12.9351 31.21 12.1072 31.21 11.2462C31.21 10.101 31.447 9.03444 31.9232 8.04039C32.3973 7.04937 33.0353 6.26382 33.8349 5.68369C34.6322 5.10059 35.4985 4.81055 36.4338 4.81055L36.4337 4.81059ZM36.1382 5.17739C34.3071 5.5576 32.6594 8.59091 32.6594 11.5552C32.6594 14.7245 33.9893 16.7167 35.4369 17.5304C35.7962 17.619 36.1673 17.6636 36.5501 17.6636C36.9008 17.6636 37.2411 17.6252 37.5712 17.5485C39.0356 16.7529 40.4748 14.3927 40.4748 11.3599C40.4748 8.32731 38.7559 5.61989 37.0103 5.1966H37.0104C37.0943 5.2202 37.1795 5.25075 37.2656 5.28787C37.4983 5.38764 37.7007 5.52056 37.8775 5.68669C38.2351 5.99793 38.5412 6.42098 38.7934 6.9557C39.0455 7.48753 39.2395 8.11592 39.3731 8.83499C39.5088 9.5541 39.5756 10.3276 39.5756 11.1524C39.5756 12.4275 39.4529 13.5273 39.2072 14.4518C38.9594 15.3794 38.6058 16.0925 38.1469 16.591C37.6857 17.0896 37.1448 17.3374 36.522 17.3374C36.0628 17.3374 35.6448 17.1953 35.272 16.9113C34.8972 16.6303 34.576 16.2194 34.3065 15.6785C34.0371 15.1377 33.8303 14.4971 33.6881 13.7509C33.5437 13.0046 33.4726 12.1767 33.4726 11.2673C33.4726 10.5421 33.5178 9.86533 33.6083 9.2369C33.6989 8.60842 33.8325 8.04039 34.0114 7.52982C34.1901 7.01914 34.4057 6.57802 34.66 6.20643C34.8906 5.865 35.1751 5.60223 35.5134 5.41483C35.6953 5.31621 35.8828 5.24372 36.0766 5.19739C36.094 5.1902 36.1145 5.18356 36.1381 5.17735L36.1382 5.17739Z" fill="#323232"/>
<defs>
<filter id="filter0_b_447_92" x="-7.91495" y="-8.33462" width="95.9361" height="57.2513" filterUnits="userSpaceOnUse" color-interpolation-filters="sRGB">
<feFlood flood-opacity="0" result="BackgroundImageFix"/>
<feGaussianBlur in="BackgroundImageFix" stdDeviation="4.31282"/>
<feComposite in2="SourceAlpha" operator="in" result="effect1_backgroundBlur_447_92"/>
<feBlend mode="normal" in="SourceGraphic" in2="effect1_backgroundBlur_447_92" result="shape"/>
</filter>
<linearGradient id="paint0_linear_447_92" x1="17.7805" y1="8.56687" x2="82.9029" y2="14.9957" gradientUnits="userSpaceOnUse">
<stop stop-color="#FFEFD5"/>
<stop offset="1" stop-color="#FCD18B"/>
</linearGradient>
<linearGradient id="paint1_linear_447_92" x1="40.0994" y1="0.291016" x2="40.0994" y2="40.291" gradientUnits="userSpaceOnUse">
<stop stop-color="#E4E4E4"/>
<stop offset="1" stop-color="#E4E4E4" stop-opacity="0"/>
</linearGradient>
</defs>
</svg>
