<svg width="718" height="45" viewBox="0 0 718 45" fill="none" xmlns="http://www.w3.org/2000/svg">
<path d="M47.7205 0H58.1102L36.3412 44.7002H26.0751L47.7205 0Z" fill="white" fill-opacity="0.25"/>
<path d="M73.7956 0H84.1853L62.4163 44.7002H52.1502L73.7956 0Z" fill="white" fill-opacity="0.25"/>
<path d="M21.6454 0H32.0351L10.2661 44.7002H0L21.6454 0Z" fill="white" fill-opacity="0.25"/>
<path d="M125.946 0H136.336L114.566 44.7002H104.3L125.946 0Z" fill="white" fill-opacity="0.25"/>
<path d="M99.8707 0H110.26L88.4914 44.7002H78.2253L99.8707 0Z" fill="white" fill-opacity="0.25"/>
<path d="M180.331 0H190.721L168.952 44.7002H158.686L180.331 0Z" fill="white" fill-opacity="0.25"/>
<path d="M206.406 0H216.796L195.027 44.7002H184.761L206.406 0Z" fill="white" fill-opacity="0.25"/>
<path d="M154.256 0H164.646L142.877 44.7002H132.611L154.256 0Z" fill="white" fill-opacity="0.25"/>
<path d="M258.556 0H268.946L247.177 44.7002H236.911L258.556 0Z" fill="white" fill-opacity="0.25"/>
<path d="M232.481 0H242.871L221.102 44.7002H210.836L232.481 0Z" fill="white" fill-opacity="0.25"/>
<path d="M312.197 0H322.586L300.817 44.7002H290.551L312.197 0Z" fill="white" fill-opacity="0.25"/>
<path d="M338.272 0H348.661L326.892 44.7002H316.626L338.272 0Z" fill="white" fill-opacity="0.25"/>
<path d="M286.121 0H296.511L274.742 44.7002H264.476L286.121 0Z" fill="white" fill-opacity="0.25"/>
<path d="M390.422 0H400.812L379.043 44.7002H368.776L390.422 0Z" fill="white" fill-opacity="0.25"/>
<path d="M364.347 0H374.737L352.967 44.7002H342.701L364.347 0Z" fill="white" fill-opacity="0.25"/>
<path d="M444.807 0H455.197L433.428 44.7002H423.162L444.807 0Z" fill="white" fill-opacity="0.25"/>
<path d="M470.882 0H481.272L459.503 44.7002H449.237L470.882 0Z" fill="white" fill-opacity="0.25"/>
<path d="M418.732 0H429.122L407.353 44.7002H397.087L418.732 0Z" fill="white" fill-opacity="0.25"/>
<path d="M523.032 0H533.422L511.653 44.7002H501.387L523.032 0Z" fill="white" fill-opacity="0.25"/>
<path d="M496.957 0H507.347L485.578 44.7002H475.312L496.957 0Z" fill="white" fill-opacity="0.25"/>
<path d="M576.673 0H587.062L565.293 44.7002H555.027L576.673 0Z" fill="white" fill-opacity="0.25"/>
<path d="M602.748 0H613.137L591.368 44.7002H581.102L602.748 0Z" fill="white" fill-opacity="0.25"/>
<path d="M550.598 0H560.987L539.218 44.7002H528.952L550.598 0Z" fill="white" fill-opacity="0.25"/>
<path d="M654.898 0H665.288L643.519 44.7002H633.253L654.898 0Z" fill="white" fill-opacity="0.25"/>
<path d="M628.823 0H639.213L617.444 44.7002H607.177L628.823 0Z" fill="white" fill-opacity="0.25"/>
<path d="M707.048 0H717.438L695.669 44.7002H685.403L707.048 0Z" fill="white" fill-opacity="0.25"/>
<path d="M680.973 0H691.363L669.594 44.7002H659.328L680.973 0Z" fill="white" fill-opacity="0.25"/>
</svg>
