<svg width="17" height="17" viewBox="0 0 17 17" fill="none" xmlns="http://www.w3.org/2000/svg">
<path d="M7.27626 1.49628C7.77496 0.478994 9.22504 0.478994 9.72374 1.49628L11.2561 4.62213C11.4547 5.0272 11.8408 5.30777 12.2874 5.37145L15.7338 5.86287C16.8554 6.0228 17.3035 7.40191 16.4901 8.19056L13.9908 10.6139C13.6669 10.9279 13.5194 11.3819 13.5969 11.8263L14.1945 15.2558C14.389 16.372 13.2158 17.2243 12.2144 16.6944L9.13741 15.0663C8.73866 14.8553 8.26134 14.8553 7.86259 15.0663L4.78556 16.6944C3.78415 17.2243 2.61102 16.372 2.80551 15.2559L3.40313 11.8263C3.48057 11.3819 3.33307 10.9279 3.00919 10.6139L0.509857 8.19056C-0.303535 7.40191 0.144562 6.0228 1.26617 5.86287L4.71255 5.37145C5.15916 5.30777 5.54532 5.0272 5.7439 4.62213L7.27626 1.49628Z" fill="#FED42B"/>
</svg>
