<svg width="133" height="85" viewBox="0 0 133 85" fill="none" xmlns="http://www.w3.org/2000/svg">
<path fill-rule="evenodd" clip-rule="evenodd" d="M82.3485 56.5723H86.453C87.1758 56.6951 87.8082 57.0645 88.2508 57.5853V83.6313H82.3485V82.8777H83.1273C84.4356 82.8777 85.406 82.4743 86.0395 81.6673C86.6726 80.8606 86.9893 79.6244 86.9893 77.9577V62.2064C86.9893 60.5269 86.6726 59.2902 86.0445 58.4902C85.4167 57.6902 84.4457 57.2866 83.1273 57.2866H82.3485V56.5723ZM98.8231 57.501C104.224 57.7041 108.553 63.2645 108.553 70.0951C108.553 76.9254 104.224 82.4858 98.8231 82.6889V82.6837C102.798 82.4125 105.972 76.8806 105.972 70.0951C105.972 63.3092 102.798 57.7774 98.8231 57.5061V57.501ZM89.6677 56.5723H96.4523C98.7468 56.5723 100.745 56.9361 102.453 57.6637C104.161 58.3975 105.599 59.5153 106.767 61.0228C107.82 62.3321 108.635 63.8 109.207 65.4402C109.783 67.0801 110.068 68.7663 110.068 70.4988C110.068 72.3965 109.757 74.1554 109.139 75.7692C108.521 77.3825 107.649 78.7776 106.517 79.948C105.386 81.1252 104.042 82.0314 102.494 82.6725C100.943 83.3142 99.2599 83.6314 97.4539 83.6314H89.6676V56.5724L89.6677 56.5723ZM91.4741 57.2866V82.8777H95.5855C96.7482 82.8777 97.7395 82.7916 98.5494 82.6261C99.3643 82.4611 100.071 82.183 100.683 81.7996C101.29 81.4227 101.82 80.9202 102.277 80.2985C103.963 78.1165 104.804 74.7572 104.804 70.2277C104.804 68.7399 104.701 67.3377 104.493 66.0154C104.286 64.693 103.984 63.5223 103.585 62.5171C103.19 61.5122 102.697 60.6261 102.095 59.8654C101.597 59.2438 101.036 58.7414 100.413 58.3646C99.7901 57.9808 99.0685 57.7032 98.2535 57.5381C97.4383 57.3724 96.4577 57.2865 95.3104 57.2865H91.4742L91.4741 57.2866Z" fill="#2B2A29"/>
<path d="M2.50714 0.637695H7.80529L31.7003 33.6862V35.7051H31.0914L8.67267 4.91299V25.5344C8.67267 27.5362 8.85047 29.1394 9.21243 30.3439C9.57371 31.5402 10.1576 32.4816 10.9631 33.1601C11.6228 33.6946 12.4159 34.0339 13.361 34.1781C13.8813 34.2969 14.6232 34.3817 15.594 34.4327V35.3488H2.04419V34.4327C3.42725 34.3307 4.56228 33.9999 5.43122 33.4486C6.30707 32.8886 6.94761 32.0659 7.36653 30.9717C7.77887 29.886 7.9881 28.5203 7.9881 26.9V7.27103C7.9881 6.05811 7.785 5.03162 7.38525 4.1919C6.9796 3.34363 6.39581 2.69078 5.62797 2.24113C4.86058 1.78281 3.93446 1.55399 2.84346 1.55399H2.50714V0.637695ZM10.0304 0.637695H12.9358L30.977 25.6277V10.6729C30.977 8.84927 30.7423 7.25438 30.2792 5.88877C29.8163 4.52281 29.15 3.47957 28.2685 2.77534C27.7991 2.37684 27.323 2.08843 26.8474 1.92719C26.3717 1.75773 25.7053 1.63899 24.849 1.5541V0.637806H37.714V1.50316H27.9964L27.9979 1.50461C30.4415 1.77416 31.8341 4.01046 31.8313 8.3479C31.7438 9.12592 31.7008 9.96886 31.7001 10.8765L31.6795 30.2337L10.0301 0.637806L10.0304 0.637695Z" fill="#2B2A29"/>
<path d="M69.5608 0.638139H74.1263L86.3278 34.3673L85.7816 36.0109L85.1344 36.062L75.0798 6.7458C73.8939 3.28481 72.3521 1.55454 70.4742 1.55454H69.5605V0.63825L69.5608 0.638139ZM76.0244 0.637695L84.7412 0.638139V1.55443H82.8824C82.0448 1.55443 81.3792 1.78326 80.8969 2.25C80.4146 2.71642 80.1735 3.36971 80.1735 4.20954C80.1735 5.00676 80.3515 5.94814 80.7128 7.04265L87.7924 27.8166L93.7362 9.9015C94.2056 8.52712 94.4467 7.33972 94.4467 6.34708C94.4467 4.92176 94.1104 3.79373 93.4511 2.94557C92.7845 2.09731 91.8646 1.63933 90.6915 1.55443V0.638139H101.152V1.55443C100.162 1.70702 99.2741 2.08887 98.4939 2.70798C97.7139 3.32743 97.0032 4.2263 96.3559 5.3885C95.7153 6.55915 95.0622 8.11142 94.4088 10.0541L87.0544 32.1087L76.0244 0.637695Z" fill="#2B2A29"/>
<path d="M56.7262 56.5724H59.9406C61.0596 56.9094 61.8927 57.8572 62.0048 59.0032V83.6314H56.7518L56.7262 82.9175H57.3023C59.8769 82.9175 61.1643 81.264 61.1643 77.9577V62.2064C61.1643 60.5269 60.8476 59.2902 60.2196 58.4902C59.5914 57.6902 58.6207 57.2866 57.3023 57.2866H56.7262V56.5723V56.5724ZM63.3669 56.5724H74.1227L74.1559 56.6054C76.3661 56.763 78.1467 58.5538 78.3997 60.8301L78.4012 60.8316V56.5724H79.3217V67.0404H78.8653C78.45 65.2086 78.0764 63.84 77.749 62.9273C77.417 62.0213 76.9912 61.1551 76.4618 60.3485C75.8233 59.3765 75.1275 58.6885 74.3804 58.272C73.1291 57.6175 71.6134 57.2868 69.8329 57.2868H65.649V70.1417H66.7756C68.4469 70.1417 69.7757 69.2226 70.7568 67.3909C71.2657 66.4522 71.6394 65.3279 71.8833 64.0251C72.0077 63.4697 72.1167 62.6497 72.2208 61.5652H72.7502V79.3134H72.2208C72.0961 78.3613 71.9504 77.4621 71.7845 76.6157C71.6185 75.7695 71.4314 75.0817 71.2241 74.5528C71.0167 74.0235 70.7464 73.4947 70.4248 72.9654C69.5112 71.5306 68.2134 70.8166 66.5315 70.8166H65.649V82.9177H69.1475C70.1806 82.9177 71.1097 82.8251 71.9348 82.6398C72.7654 82.4483 73.5082 82.157 74.1672 81.7671C74.8266 81.3703 75.444 80.861 76.0206 80.2264C77.0119 79.1552 77.785 77.8193 78.3305 76.219C78.6468 75.3 78.9742 74.0634 79.3215 72.5028H79.8823V83.6317H78.8192V79.3748L78.8176 79.3763C78.5647 81.653 76.784 83.4436 74.5738 83.601L74.5429 83.6317H63.3667V56.5727L63.3669 56.5724Z" fill="#2B2A29"/>
<path d="M19.6838 56.5722H23.413L31.4583 83.4438L31.2127 84.2263H30.6158L24.4749 62.8082C23.9351 60.8575 23.3329 59.4489 22.6633 58.5826C21.9937 57.7162 21.1787 57.2864 20.2184 57.2864H19.6838V56.5721V56.5722ZM24.7104 56.6136L30.7405 56.5722L30.7717 57.2865C29.8681 57.2995 29.2038 57.4518 28.7835 57.7494C28.363 58.047 28.1553 58.51 28.1553 59.1445C28.1553 59.7661 28.2437 60.4209 28.4304 61.1019L32.9156 76.9261L37.2497 63.1918C36.8914 61.8758 36.5803 60.9104 36.3104 60.2886C36.0457 59.6671 35.703 59.1051 35.2879 58.6027C34.9189 58.1133 34.545 57.7691 34.151 57.5776C33.7618 57.3857 33.2892 57.2865 32.7339 57.2865V56.5722H35.9487L44.0716 83.7022L43.9097 84.2264H43.3441L37.5352 64.0711L32.121 81.2655L24.7104 56.6136ZM37.3043 56.5518L44.2574 56.5723V57.2866H43.6971C42.7834 57.2866 42.0722 57.485 41.5687 57.8752C41.06 58.2718 40.8056 58.8407 40.8056 59.5943C40.8056 60.0967 40.8781 60.573 41.0183 61.0227L45.5966 76.9261L50.0819 62.3584C50.3048 61.5713 50.4191 60.864 50.4191 60.2291C50.4191 59.2637 50.118 58.5364 49.5265 58.0604C48.9347 57.5841 48.021 57.3263 46.78 57.2865L46.7545 56.5722H55.2829V57.2865C54.7173 57.3393 54.2552 57.4518 53.9074 57.6239C53.5594 57.8023 53.1756 58.0867 52.7601 58.4901C51.909 59.3364 51.1822 60.7118 50.585 62.6097L44.678 81.7832L37.3042 56.5518H37.3043Z" fill="#2B2A29"/>
<path fill-rule="evenodd" clip-rule="evenodd" d="M3.01449 43.3896C1.34973 43.3896 0 44.7333 0 46.3905C0 48.0478 1.34973 49.3914 3.01449 49.3914C4.5671 49.3914 5.84526 48.2229 6.01036 46.7211H54.9672C55.0677 47.9477 55.6097 49.05 56.4336 49.8703C57.3498 50.7821 58.6159 51.3469 60.0143 51.3469C61.4126 51.3469 62.6788 50.7822 63.5949 49.8703L63.6224 49.8425C63.8863 50.257 64.1949 50.6404 64.5416 50.9854C65.7444 52.1828 67.4068 52.9238 69.2427 52.9238C71.078 52.9238 72.7408 52.1828 73.9436 50.9842C75.0776 49.8552 75.8039 48.3194 75.8833 46.6166H124.815C124.98 48.1185 126.258 49.2868 127.81 49.2868C129.475 49.2868 130.825 47.9434 130.825 46.2861C130.825 44.6287 129.475 43.2852 127.81 43.2852C126.244 43.2852 124.957 44.4742 124.81 45.9947H75.8833C75.8039 44.2918 75.0776 42.7561 73.9424 41.6257C72.7396 40.4287 71.0772 39.6875 69.2427 39.6875C67.4079 39.6875 65.7456 40.4287 64.5416 41.6257C64.1949 41.971 63.8863 42.3544 63.6224 42.7689L63.5949 42.7411C62.6787 41.8293 61.4126 41.2644 60.0143 41.2644C58.6159 41.2644 57.3497 41.8291 56.4336 42.7411C55.5632 43.6078 55.0079 44.7892 54.9547 46.0992H6.01481C5.86767 44.5787 4.58059 43.3896 3.01449 43.3896ZM64.0514 49.349C64.6956 48.5033 65.0784 47.449 65.0784 46.3056C65.0784 45.1623 64.6957 44.1079 64.0514 43.2622C64.3106 42.8244 64.6242 42.4221 64.9828 42.0648C66.0726 40.9807 67.579 40.3094 69.2429 40.3094C70.9064 40.3094 72.4131 40.9808 73.5028 42.0648C74.592 43.1497 75.2664 44.6497 75.2664 46.3057C75.2664 47.9621 74.592 49.4618 73.5023 50.546C72.4125 51.6308 70.9061 52.3021 69.2429 52.3021C67.5794 52.3021 66.0732 51.6307 64.9835 50.546C64.6248 50.1891 64.3106 49.7869 64.0514 49.3493V49.349ZM63.3007 49.2766C62.8491 48.3831 62.5944 47.374 62.5944 46.3055C62.5944 45.2374 62.8491 44.2282 63.3007 43.3345C63.253 43.282 63.2037 43.2306 63.1534 43.1806C62.3503 42.3812 61.24 41.8862 60.0143 41.8862C58.7887 41.8862 57.6782 42.3812 56.8753 43.1806C56.0722 43.98 55.5749 45.0855 55.5749 46.3055C55.5749 47.5255 56.0722 48.631 56.8753 49.4304C57.6782 50.2298 58.7886 50.7249 60.0143 50.7249C61.2399 50.7249 62.3503 50.2298 63.1534 49.4304C63.2037 49.3803 63.253 49.3291 63.3007 49.2766ZM63.7296 43.8862C63.4016 44.6262 63.2193 45.4449 63.2193 46.3056C63.2193 47.1667 63.4016 47.985 63.7296 48.725C64.1872 48.0301 64.4536 47.1987 64.4536 46.3056C64.4536 45.4126 64.1875 44.5811 63.7296 43.8862Z" fill="#2B2A29"/>
<path d="M116.629 1.14464C119.052 1.14464 121.273 1.66199 123.29 2.70568C125.301 3.74049 127.052 5.25859 128.536 7.25219C129.792 8.94018 130.756 10.8235 131.441 12.9019C132.12 14.9797 132.463 17.1007 132.463 19.2723C132.463 22.538 131.771 25.5407 130.389 28.2893C129.012 31.0378 127.134 33.2176 124.761 34.8208C124.471 35.017 124.177 35.2014 123.88 35.3736C128.174 32.3116 130.316 27.9803 130.314 19.8748C130.31 8.25482 123.916 2.26623 117.377 2.03563C110.529 1.79405 103.521 7.85455 103.524 19.8748C103.526 28.0531 105.488 32.0949 109.65 35.1992C108.252 34.3595 106.988 33.296 105.858 31.9959C104.411 30.3334 103.282 28.391 102.47 26.1684C101.659 23.9545 101.252 21.6302 101.252 19.2127C101.252 15.9977 101.95 13.0034 103.352 10.2124C104.748 7.43008 106.626 5.22463 108.979 3.59601C111.326 1.95895 113.876 1.14453 116.629 1.14453L116.629 1.14464ZM115.759 2.17446C110.369 3.2419 105.519 11.7582 105.519 20.0803C105.519 28.9782 109.434 34.5714 113.695 36.8558C114.753 37.1045 115.845 37.2298 116.972 37.2298C118.004 37.2298 119.006 37.1219 119.977 36.9067C124.288 34.6729 128.525 28.0465 128.525 19.532C128.525 11.0179 123.465 3.4169 118.326 2.22839H118.327C118.574 2.29464 118.825 2.38042 119.078 2.48463C119.763 2.76483 120.359 3.13792 120.879 3.60444C121.932 4.47801 122.833 5.66585 123.575 7.16697C124.317 8.66009 124.888 10.4243 125.281 12.4432C125.681 14.462 125.878 16.6336 125.878 18.9495C125.878 22.5293 125.516 25.6169 124.793 28.2126C124.064 30.8167 123.023 32.8189 121.672 34.2182C120.315 35.618 118.722 36.3136 116.889 36.3136C115.538 36.3136 114.307 35.9146 113.21 35.1175C112.106 34.3286 111.161 33.1752 110.368 31.6564C109.575 30.1381 108.966 28.3398 108.547 26.2447C108.122 24.1493 107.913 21.8251 107.913 19.272C107.913 17.236 108.046 15.3358 108.312 13.5716C108.579 11.8071 108.972 10.2123 109.499 8.77883C110.025 7.34508 110.66 6.10674 111.408 5.0635C112.087 4.10492 112.924 3.36707 113.92 2.84096C114.456 2.5643 115.007 2.36067 115.578 2.23061C115.629 2.21041 115.69 2.19166 115.759 2.17424L115.759 2.17446Z" fill="#2B2A29"/>
<path d="M53.8943 0.000110972C56.3176 0.000110972 58.5379 0.517461 60.555 1.56093C62.5659 2.59574 64.3168 4.11405 65.8014 6.10744C67.0571 7.79543 68.0213 9.67884 68.7066 11.7571C69.3852 13.8351 69.7279 15.956 69.7279 18.1276C69.7279 21.3933 69.0364 24.3959 67.6537 27.1446C66.2769 29.893 64.3993 32.0729 62.0266 33.6761C61.736 33.8722 61.4425 34.0568 61.1452 34.229C65.4393 31.1668 67.581 26.8356 67.5788 18.7301C67.5756 7.11018 61.1811 1.12159 54.6418 0.89077C47.794 0.649296 40.786 6.70968 40.7892 18.7301C40.791 26.9082 42.7531 30.95 46.9155 34.0546C45.5172 33.2147 44.2527 32.1513 43.123 30.8512C41.6765 29.1887 40.5475 27.2462 39.7354 25.0237C38.9237 22.8098 38.5176 20.4856 38.5176 18.0682C38.5176 14.853 39.2154 11.8587 40.6172 9.06783C42.0127 6.28555 43.8907 4.0801 46.2443 2.45136C48.5913 0.81431 51.1413 0 53.8946 0L53.8943 0.000110972ZM53.0244 1.02993C47.6344 2.09737 42.7843 10.6134 42.7843 18.9357C42.7843 27.8337 46.6989 33.4268 50.9601 35.7111C52.0178 35.9598 53.1099 36.0851 54.2369 36.0851C55.2693 36.0851 56.271 35.9773 57.2426 35.7621C61.5532 33.5284 65.7897 26.9021 65.7897 18.3873C65.7897 9.87338 60.7298 2.27226 55.5915 1.08386H55.5917C55.8388 1.15011 56.0896 1.23589 56.3429 1.34009C57.0279 1.62019 57.6238 1.99338 58.1441 2.4598C59.1969 3.33359 60.0978 4.52132 60.8402 6.02255C61.5824 7.51567 62.1533 9.2799 62.5465 11.2987C62.946 13.3176 63.1428 15.4892 63.1428 17.805C63.1428 21.3848 62.7815 24.4724 62.0584 27.0681C61.3288 29.6722 60.288 31.6743 58.9371 33.0739C57.5796 34.4737 55.9874 35.1693 54.1542 35.1693C52.8025 35.1693 51.5721 34.7703 50.4747 33.973C49.3713 33.1841 48.4258 32.0307 47.6327 30.512C46.8397 28.9937 46.2309 27.1952 45.8121 25.1001C45.3871 23.0049 45.1778 20.6806 45.1778 18.1275C45.1778 16.0915 45.311 14.1914 45.5772 12.4271C45.844 10.6626 46.2373 9.06783 46.7638 7.63441C47.29 6.20066 47.9245 4.96221 48.6731 3.91897C49.3519 2.96039 50.1893 2.22265 51.1851 1.69654C51.7207 1.41966 52.2727 1.21614 52.843 1.08608C52.8943 1.06588 52.9547 1.04724 53.0242 1.02982L53.0244 1.02993Z" fill="#2B2A29"/>
</svg>
