<svg width="63" height="63" viewBox="0 0 63 63" fill="none" xmlns="http://www.w3.org/2000/svg">
<g filter="url(#filter0_d_1227_3)">
<circle cx="31.246" cy="31.7797" r="19.7797" fill="url(#paint0_linear_1227_3)"/>
</g>
<path d="M27.1241 41.7144C26.3581 41.7144 26.4277 41.4425 26.2188 40.7625L23.9906 33.6228L41.0507 23.8313" fill="#DEDEDE"/>
<path d="M27.1241 41.7144C27.6115 41.7144 27.89 41.4424 28.2382 41.1705L31.3717 38.2466L27.4722 35.9347" fill="#9F9F9F"/>
<path d="M27.4722 35.9347L36.8727 42.6664C37.8476 43.2784 38.6832 42.9384 38.9617 41.7144L42.7916 24.1713C43.1397 22.6754 42.1649 21.9954 41.1204 22.4714L18.7681 30.903C17.3058 31.4469 17.3058 32.3309 18.4896 32.6709L24.2691 34.4388L37.4994 26.2112C38.1261 25.8712 38.6832 26.0072 38.2654 26.4832" fill="white"/>
<defs>
<filter id="filter0_d_1227_3" x="0.270535" y="0.804227" width="61.951" height="61.9511" filterUnits="userSpaceOnUse" color-interpolation-filters="sRGB">
<feFlood flood-opacity="0" result="BackgroundImageFix"/>
<feColorMatrix in="SourceAlpha" type="matrix" values="0 0 0 0 0 0 0 0 0 0 0 0 0 0 0 0 0 0 127 0" result="hardAlpha"/>
<feOffset/>
<feGaussianBlur stdDeviation="5.59789"/>
<feComposite in2="hardAlpha" operator="out"/>
<feColorMatrix type="matrix" values="0 0 0 0 0 0 0 0 0 0.664706 0 0 0 0 1 0 0 0 0.5 0"/>
<feBlend mode="normal" in2="BackgroundImageFix" result="effect1_dropShadow_1227_3"/>
<feBlend mode="normal" in="SourceGraphic" in2="effect1_dropShadow_1227_3" result="shape"/>
</filter>
<linearGradient id="paint0_linear_1227_3" x1="20.8357" y1="39.067" x2="47.3821" y2="21.3693" gradientUnits="userSpaceOnUse">
<stop offset="0.0499999" stop-color="#30ADEB"/>
<stop offset="1" stop-color="#6FC5F1"/>
</linearGradient>
</defs>
</svg>
