<svg width="63" height="63" viewBox="0 0 63 63" fill="none" xmlns="http://www.w3.org/2000/svg">
<g filter="url(#filter0_d_1227_2)">
<circle cx="31.7797" cy="31.7797" r="19.7797" fill="url(#paint0_linear_1227_2)"/>
</g>
<path d="M27.2584 41.5914L27.1268 41.8882L27.0298 41.5838L21.107 43.4709L19.9571 43.8373L22.2601 37.0267L22.3079 36.8854L22.2367 36.7543C21.8261 35.9987 21.5009 35.1983 21.2692 34.3695C20.9882 33.3639 20.8464 32.3244 20.8464 31.2799C20.8464 28.2067 22.0672 25.2936 24.245 23.1307C26.4299 20.9608 29.3623 19.7584 32.44 19.7584C35.5166 19.7584 38.4473 20.9622 40.6303 23.1324C42.8071 25.2966 44.0265 28.2105 44.0265 31.2837C44.0265 34.3562 42.8059 37.2691 40.6288 39.4318C38.4447 41.6014 35.5133 42.8041 32.4364 42.8041C31.4599 42.8041 30.4875 42.6834 29.5422 42.4413L29.4575 42.772L29.5422 42.4413C29.047 42.3145 28.561 42.1547 28.0875 41.9634L28.1519 41.9429L27.2584 41.5914L27.2584 41.5914Z" fill="#F1F1F1" stroke="#F1F1F1" stroke-width="0.682817"/>
<mask id="mask0_1227_2" style="mask-type:alpha" maskUnits="userSpaceOnUse" x="25" y="24" width="15" height="14">
<path fill-rule="evenodd" clip-rule="evenodd" d="M30.7051 27.7833C30.6545 27.6804 30.3623 26.9682 30.093 26.3117C29.9209 25.892 29.7567 25.4918 29.7245 25.4144C29.4213 24.6846 29.0861 24.7066 28.829 24.7234C28.8121 24.7245 28.7959 24.7256 28.7741 24.7256C28.6844 24.7256 28.5963 24.72 28.5049 24.7141C28.3907 24.7068 28.2721 24.6992 28.16 24.6992C28.0111 24.6992 27.8082 24.7304 27.5945 24.8314C27.4361 24.9062 27.2726 25.0189 27.123 25.1848C27.1012 25.2086 27.0847 25.2261 27.0669 25.245C26.7109 25.6227 25.9349 26.446 25.9349 28.0272C25.9349 29.6858 27.1199 31.2631 27.294 31.4947L27.2934 31.4952L27.295 31.4973L27.297 31.4993C27.3038 31.5082 27.3289 31.5453 27.3661 31.6002C27.8037 32.2462 29.8155 35.2161 32.8738 36.4218C35.6483 37.5146 36.1504 37.392 36.5988 37.2825C36.6752 37.2638 36.7497 37.2456 36.8303 37.2381C37.1935 37.2036 37.7876 36.9527 38.2875 36.6003C38.7022 36.308 39.0642 35.9386 39.2028 35.5496C39.3265 35.2018 39.3964 34.8787 39.4288 34.6128C39.4759 34.2265 39.4386 33.9225 39.369 33.8051L39.368 33.8041C39.2621 33.6281 39.079 33.5408 38.8043 33.4098C38.7558 33.3868 38.704 33.3621 38.6543 33.3378L38.6544 33.3374C38.465 33.2402 37.8096 32.9167 37.2494 32.6494C36.8873 32.4767 36.5657 32.3283 36.4383 32.2821C36.2591 32.2172 36.103 32.1681 35.9356 32.1871C35.7458 32.2087 35.5803 32.3074 35.4268 32.542L35.4264 32.5417C35.3493 32.6585 35.2136 32.8337 35.0652 33.0172C34.8302 33.3078 34.5498 33.6341 34.4303 33.7711V33.7721C34.3793 33.8307 34.3353 33.8627 34.2922 33.8679C34.2323 33.8752 34.15 33.8504 34.036 33.7939C33.9632 33.7572 33.8922 33.7262 33.8046 33.6881C33.3616 33.4951 32.4986 33.1193 31.5152 32.2404C31.1634 31.9261 30.8538 31.5825 30.5952 31.2602C30.1767 30.7384 29.8939 30.2736 29.7815 30.0777C29.6928 29.9242 29.7914 29.8247 29.8824 29.7328L29.8819 29.7323C29.9826 29.6308 30.0964 29.4927 30.2107 29.354C30.2628 29.2909 30.3148 29.2277 30.3781 29.1541L30.3791 29.1531C30.5332 28.9722 30.5971 28.8405 30.6833 28.6627C30.6984 28.6317 30.7141 28.5993 30.7299 28.5674L30.7309 28.5664C30.8067 28.4122 30.8261 28.2654 30.812 28.128C30.7989 28 30.7565 27.8858 30.7047 27.7835L30.7051 27.7833L30.7051 27.7833Z" fill="#FFFFFE"/>
</mask>
<g mask="url(#mask0_1227_2)">
<path fill-rule="evenodd" clip-rule="evenodd" d="M39.3101 34.427C39.3101 31.2368 38.0196 28.3483 35.9332 26.2571C33.8471 24.1663 30.9658 22.873 27.7841 22.873C24.5995 22.873 21.7169 24.1658 19.6298 26.2556C17.5417 28.3462 16.2506 31.2342 16.2506 34.4229C16.2506 35.4934 16.3972 36.5321 16.6709 37.5193C16.9428 38.5001 17.3406 39.4288 17.8449 40.286L15.8474 46.2413L15.6895 46.7122L16.1586 46.5615L22.3025 44.5879C23.1159 45.0298 23.9862 45.376 24.8999 45.6119C25.8204 45.8496 26.7851 45.9759 27.7803 45.9759C30.9634 45.9759 33.8452 44.683 35.9318 42.5934C38.0192 40.5028 39.3101 37.6152 39.3101 34.427L39.3101 34.427Z" fill="#36CF45"/>
</g>
<defs>
<filter id="filter0_d_1227_2" x="0.804227" y="0.804227" width="61.951" height="61.9511" filterUnits="userSpaceOnUse" color-interpolation-filters="sRGB">
<feFlood flood-opacity="0" result="BackgroundImageFix"/>
<feColorMatrix in="SourceAlpha" type="matrix" values="0 0 0 0 0 0 0 0 0 0 0 0 0 0 0 0 0 0 127 0" result="hardAlpha"/>
<feOffset/>
<feGaussianBlur stdDeviation="5.59789"/>
<feComposite in2="hardAlpha" operator="out"/>
<feColorMatrix type="matrix" values="0 0 0 0 0.211765 0 0 0 0 0.811765 0 0 0 0 0.270588 0 0 0 1 0"/>
<feBlend mode="normal" in2="BackgroundImageFix" result="effect1_dropShadow_1227_2"/>
<feBlend mode="normal" in="SourceGraphic" in2="effect1_dropShadow_1227_2" result="shape"/>
</filter>
<linearGradient id="paint0_linear_1227_2" x1="21.3693" y1="39.067" x2="47.9158" y2="21.3693" gradientUnits="userSpaceOnUse">
<stop offset="0.0499999" stop-color="#28BA38"/>
<stop offset="1" stop-color="#41DE4F"/>
</linearGradient>
</defs>
</svg>
