<svg width="678" height="106" viewBox="0 0 678 106" fill="none" xmlns="http://www.w3.org/2000/svg">
<path fill-rule="evenodd" clip-rule="evenodd" d="M579.795 3.55859H594.285C596.836 4.01094 599.069 5.37124 600.632 7.28889V103.195H579.795V100.421H582.544C587.163 100.421 590.589 98.9352 592.825 95.9637C595.06 92.9934 596.178 88.4414 596.178 82.3043V24.3047C596.178 18.1202 595.06 13.5665 592.843 10.6208C590.627 7.67504 587.198 6.18889 582.544 6.18889H579.795V3.55859V3.55859ZM637.954 6.97834C657.02 7.72611 672.303 28.2009 672.303 53.3523C672.303 78.5029 657.02 98.9777 637.954 99.7255V99.7062C651.988 98.7076 663.193 78.3382 663.193 53.3523C663.193 28.3656 651.987 7.99621 637.954 6.99713V6.97834ZM605.634 3.55859H629.585C637.685 3.55859 644.74 4.89847 650.769 7.57738C656.798 10.2796 661.874 14.3956 665.998 19.9463C669.717 24.7677 672.594 30.1725 674.611 36.2123C676.645 42.2505 677.653 48.4595 677.653 54.8389C677.653 61.8267 676.553 68.3033 674.372 74.2455C672.191 80.186 669.112 85.3232 665.118 89.6329C661.123 93.9676 656.377 97.3044 650.915 99.665C645.437 102.028 639.497 103.196 633.121 103.196H605.633V3.55901L605.634 3.55859ZM612.011 6.18889V100.421H626.525C630.63 100.421 634.129 100.103 636.988 99.4942C639.865 98.8865 642.358 97.8625 644.521 96.4508C646.664 95.0631 648.534 93.2129 650.146 90.9233C656.101 82.889 659.07 70.5193 659.07 53.8406C659.07 48.3622 658.704 43.1993 657.972 38.3302C657.238 33.4607 656.175 29.1501 654.764 25.4488C653.372 21.7483 651.631 18.4855 649.504 15.6844C647.746 13.3957 645.766 11.5459 643.567 10.1582C641.368 8.74523 638.821 7.72286 635.944 7.11483C633.066 6.50476 629.604 6.18847 625.554 6.18847H612.011L612.011 6.18889Z" fill="#323232"/>
<path d="M1.26233 1.80176H15.7088L80.8634 95.0385V100.734H79.2028L18.0739 13.8633V72.0407C18.0739 77.6882 18.5587 82.2112 19.5456 85.6093C20.5307 88.9843 22.1229 91.6401 24.3192 93.5542C26.1181 95.0623 28.2804 96.0194 30.8577 96.4264C32.2762 96.7614 34.2991 97.0009 36.9462 97.1446V99.729H0V97.1446C3.77119 96.8568 6.86607 95.9236 9.23541 94.3682C11.6236 92.7884 13.3701 90.4673 14.5124 87.3804C15.6367 84.3173 16.2073 80.4646 16.2073 75.8934V20.5158C16.2073 17.0939 15.6535 14.1979 14.5635 11.8289C13.4574 9.43577 11.8655 7.59395 9.77189 6.32537C7.67946 5.03237 5.15419 4.38681 2.17937 4.38681H1.26233V1.80176V1.80176ZM21.776 1.80176H29.6981L78.891 72.304V30.1131C78.891 24.9683 78.2512 20.4688 76.9882 16.6161C75.7262 12.7625 73.9094 9.81929 71.5057 7.83251C70.2258 6.70826 68.9276 5.89458 67.6309 5.43968C66.3336 4.96162 64.5166 4.62663 62.1819 4.38713V1.80207H97.2609V4.24343H70.7638L70.7681 4.2475C77.4308 5.00795 81.2281 11.317 81.2205 23.5539C80.9819 25.7488 80.8646 28.127 80.8627 30.6876L80.8065 85.2984L21.7751 1.80207L21.776 1.80176Z" fill="#323232"/>
<path d="M184.097 1.80301H196.546L229.816 96.9602L228.327 101.597L226.562 101.741L199.146 19.034C195.912 9.26984 191.708 4.38838 186.588 4.38838H184.097V1.80332L184.097 1.80301ZM201.722 1.80176L225.49 1.80301V4.38807H220.421C218.137 4.38807 216.322 5.03363 215.008 6.35042C213.692 7.66627 213.035 9.50934 213.035 11.8787C213.035 14.1278 213.52 16.7836 214.505 19.8715L233.809 78.4791L250.016 27.9369C251.296 24.0595 251.954 20.7096 251.954 17.9091C251.954 13.888 251.037 10.7056 249.239 8.31277C247.421 5.91963 244.913 4.62757 241.714 4.38807V1.80301H270.238V4.38807C267.538 4.81854 265.117 5.89584 262.989 7.64248C260.862 9.39006 258.924 11.926 257.16 15.2048C255.413 18.5074 253.632 22.8867 251.85 28.3674L231.797 90.5882L201.722 1.80176V1.80176Z" fill="#323232"/>
<path d="M489.054 3.55899H500.662C504.703 4.79996 507.712 8.28996 508.117 12.5097V103.195H489.146L489.054 100.566H491.134C500.432 100.566 505.081 94.4776 505.081 82.3033V24.3044C505.081 18.12 503.938 13.5664 501.669 10.6207C499.401 7.67499 495.895 6.18884 491.134 6.18884H489.054V3.55859V3.55899ZM513.036 3.55899H551.878L551.998 3.68076C559.98 4.26099 566.41 10.8548 567.324 19.2368L567.329 19.2421V3.55899H570.653V42.1041H569.005C567.505 35.3591 566.156 30.3197 564.974 26.9588C563.775 23.6229 562.237 20.4332 560.325 17.4634C558.019 13.8843 555.507 11.3509 552.809 9.81736C548.29 7.40734 542.816 6.18966 536.386 6.18966H521.277V53.5233H525.345C531.381 53.5233 536.18 50.1392 539.723 43.3945C541.56 39.9381 542.91 35.7984 543.791 31.0012C544.24 28.9561 544.634 25.9368 545.01 21.9434H546.921V87.295H545.01C544.56 83.7895 544.033 80.4785 543.434 77.3619C542.835 74.2458 542.159 71.7132 541.41 69.7658C540.661 67.8167 539.685 65.8696 538.524 63.9209C535.224 58.6375 530.538 56.0085 524.464 56.0085H521.277V100.567H533.911C537.642 100.567 540.997 100.226 543.977 99.5437C546.977 98.8384 549.659 97.7658 552.039 96.3299C554.42 94.8691 556.65 92.9935 558.732 90.6571C562.312 86.7127 565.104 81.7938 567.074 75.9011C568.216 72.517 569.399 67.9638 570.653 62.2174H572.678V103.196H568.839V87.5214L568.833 87.5267C567.919 95.9098 561.489 102.503 553.507 103.083L553.396 103.196H513.035V3.56023L513.036 3.55899Z" fill="#323232"/>
<path d="M359.169 3.63341H372.216L400.363 102.107L399.504 104.975H397.415L375.931 26.486C374.042 19.3373 371.936 14.1754 369.593 11.001C367.25 7.82573 364.399 6.25071 361.039 6.25071H359.169V3.63302V3.63341ZM376.755 3.7851L397.852 3.63341L397.961 6.25113C394.8 6.29871 392.476 6.85706 391.005 7.94733C389.534 9.03801 388.807 10.7346 388.807 13.06C388.807 15.3377 389.116 17.7374 389.77 20.2331L405.461 78.2221L420.625 27.8915C419.371 23.0692 418.283 19.5312 417.339 17.2527C416.412 14.9749 415.213 12.9156 413.761 11.0746C412.47 9.2812 411.162 8.01972 409.783 7.31782C408.422 6.61469 406.768 6.25113 404.826 6.25113V3.63341H416.073L444.492 103.054L443.925 104.975H441.947L421.624 31.1139L402.682 94.1244L376.755 3.7851V3.7851ZM420.816 3.55859L445.142 3.63383V6.25153H443.181C439.985 6.25153 437.497 6.97865 435.735 8.40849C433.955 9.86191 433.065 11.9465 433.065 14.7082C433.065 16.5495 433.319 18.295 433.81 19.9428L449.827 78.2221L465.519 24.8374C466.299 21.9533 466.699 19.3612 466.699 17.0347C466.699 13.4967 465.646 10.8314 463.576 9.08721C461.506 7.3418 458.309 6.39712 453.967 6.25113L453.878 3.63341H483.716V6.25113C481.737 6.4447 480.12 6.85706 478.903 7.48739C477.686 8.14131 476.343 9.1836 474.889 10.6618C471.912 13.7631 469.369 18.8033 467.28 25.7585L446.613 96.0215L420.815 3.55859H420.816Z" fill="#323232"/>
<path d="M312.438 3.22883C319.045 3.22883 325.099 4.68838 330.599 7.63285C336.082 10.5523 340.857 14.8351 344.905 20.4595C348.328 25.2217 350.958 30.5349 352.826 36.3985C354.677 42.2605 355.611 48.2443 355.611 54.3708C355.611 63.584 353.725 72.0552 349.955 79.8097C346.201 87.5636 341.081 93.7134 334.611 98.2364C333.819 98.7899 333.019 99.3102 332.208 99.7961C343.917 91.1574 349.757 78.9378 349.751 56.0705C349.742 23.2882 332.306 6.39307 314.476 5.74251C295.804 5.06094 276.695 22.1589 276.703 56.0705C276.709 79.1432 282.059 90.546 293.408 99.3039C289.595 96.9349 286.148 93.9347 283.067 90.2667C279.123 85.5765 276.045 80.0965 273.83 73.8262C271.617 67.5804 270.51 61.023 270.51 54.2027C270.51 45.1323 272.413 36.6849 276.235 28.8108C280.04 20.9614 285.161 14.7393 291.578 10.1446C297.978 5.52617 304.931 3.22852 312.438 3.22852L312.438 3.22883ZM310.065 6.13416C295.368 9.14563 282.144 33.1719 282.144 56.6503C282.144 81.7533 292.818 97.5329 304.437 103.978C307.321 104.679 310.299 105.033 313.372 105.033C316.186 105.033 318.917 104.728 321.567 104.121C333.321 97.819 344.873 79.1247 344.873 55.1034C344.873 31.0834 331.076 9.63935 317.065 6.28632H317.066C317.74 6.47322 318.424 6.71523 319.114 7.00921C320.982 7.79972 322.607 8.85228 324.026 10.1684C326.896 12.633 329.353 15.9841 331.377 20.2191C333.401 24.4315 334.958 29.4088 336.03 35.1045C337.119 40.8 337.656 46.9265 337.656 53.4601C337.656 63.5596 336.67 72.2703 334.699 79.5934C332.709 86.94 329.871 92.5885 326.188 96.5364C322.486 100.485 318.145 102.448 313.146 102.448C309.461 102.448 306.106 101.322 303.114 99.0735C300.105 96.8479 297.527 93.5938 295.364 89.309C293.202 85.0255 291.542 79.9522 290.4 74.0413C289.241 68.1298 288.671 61.5728 288.671 54.3699C288.671 48.6259 289.034 43.2651 289.76 38.2879C290.487 33.31 291.559 28.8105 292.995 24.7665C294.43 20.7216 296.16 17.228 298.201 14.2847C300.052 11.5804 302.335 9.49878 305.05 8.01449C306.511 7.23399 308.016 6.6595 309.571 6.29258C309.711 6.2356 309.876 6.18269 310.065 6.13354L310.065 6.13416Z" fill="#323232"/>
<path d="M141.38 0.000313075C147.988 0.000313075 154.042 1.45987 159.542 4.40371C165.025 7.32313 169.799 11.6066 173.847 17.2304C177.271 21.9926 179.9 27.3061 181.769 33.1693C183.619 39.0316 184.554 45.0151 184.554 51.1417C184.554 60.3552 182.668 68.826 178.898 76.5806C175.144 84.3345 170.024 90.4845 163.555 95.0075C162.762 95.5607 161.962 96.0813 161.151 96.5672C172.86 87.9283 178.7 75.709 178.694 52.8417C178.685 20.0593 161.249 3.16425 143.418 2.51305C124.747 1.8318 105.638 18.9294 105.647 52.8417C105.652 75.9137 111.002 87.3165 122.351 96.0751C118.538 93.7057 115.091 90.7055 112.01 87.0379C108.066 82.3474 104.988 76.8673 102.773 70.5971C100.56 64.3512 99.4526 57.7942 99.4526 50.9742C99.4526 41.9035 101.355 33.4558 105.178 25.5823C108.983 17.7329 114.104 11.5108 120.521 6.91582C126.921 2.29734 133.874 0 141.381 0L141.38 0.000313075ZM139.008 2.90565C124.311 5.91711 111.087 29.9428 111.087 53.4215C111.087 78.5248 121.761 94.304 133.38 100.749C136.264 101.45 139.241 101.804 142.314 101.804C145.129 101.804 147.861 101.499 150.51 100.892C162.264 94.5908 173.816 75.8965 173.816 51.8746C173.816 27.8549 160.019 6.41052 146.008 3.0578H146.009C146.682 3.24471 147.366 3.48671 148.057 3.78069C149.925 4.57089 151.55 5.62376 152.968 6.93961C155.839 9.40476 158.295 12.7556 160.32 16.9909C162.343 21.2033 163.9 26.1806 164.972 31.876C166.062 37.5718 166.598 43.6983 166.598 50.2316C166.598 60.331 165.613 69.0417 163.641 76.3648C161.652 83.7115 158.814 89.3599 155.13 93.3084C151.429 97.2576 147.087 99.2199 142.089 99.2199C138.403 99.2199 135.048 98.0944 132.056 95.845C129.047 93.6193 126.469 90.3652 124.307 86.0808C122.144 81.7973 120.485 76.7233 119.343 70.8128C118.184 64.9016 117.613 58.3443 117.613 51.1414C117.613 45.3974 117.976 40.0369 118.702 35.0593C119.43 30.0815 120.502 25.5823 121.938 21.5383C123.372 17.4934 125.103 13.9994 127.144 11.0562C128.994 8.35189 131.278 6.27057 133.993 4.78628C135.454 4.00516 136.959 3.43098 138.514 3.06406C138.654 3.00708 138.818 2.95449 139.008 2.90533L139.008 2.90565Z" fill="#323232"/>
</svg>
