<svg width="184" height="117" viewBox="0 0 184 117" fill="none" xmlns="http://www.w3.org/2000/svg">
<path fill-rule="evenodd" clip-rule="evenodd" d="M114.388 78.5832H120.089C121.093 78.7538 121.972 79.267 122.587 79.9904V116.17H114.388V115.123H115.47C117.287 115.123 118.635 114.563 119.515 113.442C120.394 112.321 120.834 110.604 120.834 108.289V86.4094C120.834 84.0764 120.394 82.3586 119.522 81.2473C118.65 80.1361 117.301 79.5754 115.47 79.5754H114.388V78.5832ZM137.272 79.8732C144.774 80.1553 150.787 87.8792 150.787 97.3673C150.787 106.855 144.774 114.579 137.272 114.861V114.854C142.794 114.477 147.203 106.793 147.203 97.3673C147.203 87.9413 142.794 80.2572 137.272 79.8803V79.8732ZM124.555 78.5832H133.979C137.166 78.5832 139.942 79.0886 142.314 80.0992C144.687 81.1186 146.684 82.6713 148.307 84.7653C149.77 86.5841 150.902 88.623 151.695 90.9014C152.496 93.1793 152.892 95.5215 152.892 97.9281C152.892 100.564 152.459 103.007 151.602 105.249C150.743 107.49 149.532 109.428 147.96 111.054C146.388 112.689 144.521 113.948 142.372 114.838C140.216 115.73 137.879 116.17 135.37 116.17H124.554V78.5833L124.555 78.5832ZM127.064 79.5754V115.123H132.775C134.39 115.123 135.767 115.004 136.892 114.774C138.024 114.545 139.005 114.158 139.856 113.626C140.699 113.102 141.435 112.404 142.069 111.541C144.412 108.51 145.58 103.843 145.58 97.5515C145.58 95.4848 145.436 93.5372 145.148 91.7004C144.86 89.8634 144.442 88.2373 143.886 86.841C143.339 85.4451 142.653 84.2142 141.817 83.1575C141.125 82.2941 140.346 81.5963 139.48 81.0728C138.615 80.5398 137.613 80.1541 136.481 79.9247C135.349 79.6946 133.986 79.5753 132.393 79.5753H127.064L127.064 79.5754Z" fill="#2B2A29"/>
<path d="M3.48255 0.887329H10.842L44.0339 46.794V49.5984H43.188L12.0469 6.82601V35.4706C12.0469 38.2513 12.2939 40.4782 12.7967 42.1513C13.2985 43.8131 14.1096 45.1207 15.2285 46.0631C16.1449 46.8057 17.2464 47.2769 18.5594 47.4773C19.282 47.6422 20.3125 47.7601 21.6611 47.8309V49.1034H2.83948V47.8309C4.76064 47.6892 6.33728 47.2297 7.5443 46.4639C8.76092 45.6861 9.65066 44.5433 10.2326 43.0234C10.8053 41.5152 11.096 39.6182 11.096 37.3675V10.1015C11.096 8.41666 10.8139 6.99079 10.2586 5.82436C9.6951 4.64606 8.88418 3.73921 7.8176 3.1146C6.75165 2.47798 5.46519 2.16012 3.94972 2.16012H3.48255V0.887329ZM13.9329 0.887329H17.9686L43.0291 35.6002V14.8269C43.0291 12.2938 42.7032 10.0784 42.0598 8.18143C41.4169 6.28403 40.4914 4.83489 39.2669 3.85667C38.6148 3.30313 37.9535 2.9025 37.2929 2.67852C36.632 2.44314 35.7063 2.2782 34.517 2.16028V0.887483H52.3874V2.08952H38.8889L38.891 2.09153C42.2853 2.46595 44.2197 5.57233 44.2159 11.5973C44.0943 12.6781 44.0345 13.849 44.0336 15.1097L44.005 41.9983L13.9324 0.887483L13.9329 0.887329Z" fill="#2B2A29"/>
<path d="M96.6247 0.887274H102.967L119.915 47.7394L119.157 50.0225L118.257 50.0934L104.291 9.37124C102.644 4.56369 100.502 2.16022 97.8935 2.16022H96.6243V0.887428L96.6247 0.887274ZM105.603 0.886658L117.711 0.887274V2.16007H115.129C113.966 2.16007 113.041 2.47792 112.371 3.12627C111.701 3.77415 111.366 4.68161 111.366 5.8482C111.366 6.95559 111.614 8.26323 112.116 9.78358L121.95 38.64L130.206 13.7547C130.858 11.8456 131.193 10.1962 131.193 8.81739C131.193 6.83752 130.726 5.27061 129.81 4.09246C128.884 2.91416 127.606 2.27799 125.977 2.16007V0.887274H140.507V2.16007C139.132 2.37202 137.899 2.90244 136.815 3.76243C135.731 4.62288 134.744 5.87148 133.845 7.48586C132.955 9.11196 132.048 11.2682 131.14 13.9667L120.925 44.6021L105.603 0.886658Z" fill="#2B2A29"/>
<path d="M78.7966 78.5832H83.2616C84.8161 79.0513 85.9732 80.3679 86.129 81.9598V116.17H78.8322L78.7966 115.178H79.5969C83.1732 115.178 84.9615 112.882 84.9615 108.289V86.4092C84.9615 84.0762 84.5216 82.3584 83.6492 81.2471C82.7766 80.1359 81.4282 79.5752 79.5969 79.5752H78.7966V78.583V78.5832ZM88.0211 78.5832H102.962L103.008 78.6291C106.078 78.848 108.551 81.3355 108.903 84.4975L108.905 84.4995V78.5832H110.183V93.124H109.549C108.972 90.5795 108.454 88.6784 107.999 87.4106C107.538 86.1521 106.946 84.9488 106.211 83.8285C105.324 82.4783 104.357 81.5226 103.319 80.9441C101.581 80.0349 99.4759 79.5756 97.0027 79.5756H91.1911V97.4318H92.7559C95.0775 97.4318 96.9233 96.1552 98.2861 93.6108C98.993 92.3069 99.5121 90.7452 99.851 88.9355C100.024 88.164 100.175 87.025 100.32 85.5186H101.055V110.172H100.32C100.147 108.85 99.9442 107.6 99.7136 106.425C99.483 105.249 99.2232 104.294 98.9352 103.559C98.6472 102.824 98.2717 102.089 97.8249 101.354C96.5558 99.3611 94.7531 98.3694 92.4168 98.3694H91.1911V115.179H96.0507C97.4857 115.179 98.7763 115.05 99.9225 114.793C101.076 114.527 102.108 114.122 103.023 113.58C103.939 113.029 104.797 112.322 105.598 111.44C106.975 109.952 108.049 108.097 108.806 105.874C109.246 104.597 109.701 102.879 110.183 100.712H110.962V116.17H109.485V110.257L109.483 110.259C109.132 113.422 106.658 115.909 103.588 116.128L103.545 116.17H88.0208V78.5836L88.0211 78.5832Z" fill="#2B2A29"/>
<path d="M27.3423 78.5833H32.5223L43.6978 115.91L43.3567 116.997H42.5275L33.9974 87.2456C33.2476 84.5359 32.4111 82.5793 31.481 81.376C30.5508 80.1724 29.4187 79.5754 28.0848 79.5754H27.3423V78.5831V78.5833ZM34.3246 78.6408L42.7008 78.5833L42.7441 79.5755C41.4889 79.5936 40.5662 79.8052 39.9823 80.2185C39.3982 80.6319 39.1097 81.275 39.1097 82.1564C39.1097 83.0198 39.2325 83.9294 39.4919 84.8754L45.7221 106.856L51.7425 87.7783C51.2448 85.9505 50.8126 84.6094 50.4378 83.7457C50.07 82.8823 49.594 82.1017 49.0174 81.4039C48.5048 80.7241 47.9855 80.2459 47.4381 79.9799C46.8975 79.7133 46.241 79.5755 45.4697 79.5755V78.5833H49.9353L61.2186 116.269L60.9937 116.997H60.208L52.1391 88.9998L44.6184 112.884L34.3246 78.6408ZM51.8184 78.5549L61.4767 78.5835V79.5757H60.6983C59.4292 79.5757 58.4413 79.8513 57.7418 80.3933C57.0353 80.9442 56.6819 81.7344 56.6819 82.7812C56.6819 83.4792 56.7826 84.1408 56.9774 84.7654L63.3369 106.856L69.5672 86.6207C69.8769 85.5275 70.0356 84.5449 70.0356 83.6631C70.0356 82.322 69.6174 81.3117 68.7958 80.6506C67.9737 79.989 66.7046 79.6309 64.9807 79.5755L64.9452 78.5833H76.7918V79.5755C76.0061 79.6489 75.3643 79.8052 74.8812 80.0441C74.3978 80.292 73.8646 80.6871 73.2875 81.2474C72.1053 82.423 71.0957 84.3335 70.2662 86.9698L62.0609 113.603L51.8182 78.5549H51.8184Z" fill="#2B2A29"/>
<path fill-rule="evenodd" clip-rule="evenodd" d="M4.18733 60.2716C1.87487 60.2716 0 62.138 0 64.4401C0 66.7421 1.87487 68.6085 4.18733 68.6085C6.34402 68.6085 8.11947 66.9853 8.3488 64.8993H76.3532C76.4929 66.6031 77.2457 68.1342 78.3902 69.2737C79.6628 70.5403 81.4216 71.3247 83.364 71.3247C85.3063 71.3247 87.0652 70.5404 88.3378 69.2737L88.3758 69.2351C88.7425 69.8109 89.1711 70.3434 89.6527 70.8227C91.3235 72.4859 93.6327 73.5152 96.1828 73.5152C98.7322 73.5152 101.042 72.4859 102.713 70.821C104.288 69.2527 105.297 67.1194 105.407 64.754H173.376C173.605 66.8403 175.381 68.4631 177.538 68.4631C179.85 68.4631 181.725 66.597 181.725 64.295C181.725 61.9928 179.85 60.1266 177.538 60.1266C175.362 60.1266 173.574 61.7781 173.37 63.8902H105.407C105.297 61.5248 104.288 59.3916 102.711 57.8214C101.04 56.1586 98.7311 55.1291 96.1828 55.1291C93.6342 55.1291 91.3252 56.1586 89.6527 57.8214C89.1711 58.301 88.7425 58.8336 88.3758 59.4093L88.3378 59.3708C87.0651 58.1041 85.3063 57.3195 83.364 57.3195C81.4216 57.3195 79.6627 58.104 78.3902 59.3708C77.1811 60.5747 76.4097 62.2157 76.3358 64.0354H8.35499C8.1506 61.9233 6.36275 60.2716 4.18733 60.2716ZM88.9718 68.5496C89.8667 67.3749 90.3984 65.9103 90.3984 64.3221C90.3984 62.7339 89.8669 61.2694 88.9718 60.0946C89.3319 59.4865 89.7674 58.9276 90.2656 58.4314C91.7793 56.9254 93.8719 55.9929 96.1832 55.9929C98.4939 55.9929 100.587 56.9255 102.1 58.4314C103.613 59.9383 104.55 62.0219 104.55 64.3223C104.55 66.6231 103.613 68.7062 102.1 70.2123C100.586 71.7192 98.4934 72.6516 96.1832 72.6516C93.8724 72.6516 91.7803 71.719 90.2665 70.2123C89.7684 69.7165 89.3319 69.1579 88.9718 68.5499V68.5496ZM87.9291 68.449C87.3017 67.2079 86.948 65.8061 86.948 64.322C86.948 62.8383 87.3017 61.4365 87.9291 60.195C87.8628 60.1221 87.7942 60.0507 87.7244 59.9812C86.6089 58.8709 85.0666 58.1832 83.364 58.1832C81.6616 58.1832 80.119 58.8709 79.0037 59.9812C77.8882 61.0917 77.1974 62.6273 77.1974 64.322C77.1974 66.0167 77.8882 67.5523 79.0037 68.6626C80.119 69.7731 81.6614 70.4607 83.364 70.4607C85.0665 70.4607 86.6089 69.7731 87.7244 68.6626C87.7942 68.5931 87.8628 68.5219 87.9291 68.449ZM88.5248 60.9614C88.0693 61.9893 87.8159 63.1266 87.8159 64.3221C87.8159 65.5182 88.0693 66.6548 88.5248 67.6828C89.1604 66.7176 89.5305 65.5627 89.5305 64.3221C89.5305 63.0817 89.1609 61.9267 88.5248 60.9614Z" fill="#2B2A29"/>
<path d="M162.006 1.58933C165.372 1.58933 168.456 2.30796 171.258 3.75772C174.052 5.19514 176.484 7.30388 178.546 10.0731C180.29 12.4179 181.629 15.0339 182.581 17.9209C183.524 20.8072 184 23.7534 184 26.7699C184 31.3062 183.04 35.4771 181.119 39.2952C179.206 43.1129 176.598 46.1409 173.302 48.3678C172.899 48.6404 172.491 48.8965 172.078 49.1358C178.043 44.8824 181.018 38.8659 181.015 27.6068C181.01 11.4659 172.128 3.14729 163.044 2.82698C153.532 2.4914 143.798 10.9098 143.802 27.6068C143.805 38.967 146.53 44.5813 152.312 48.8935C150.37 47.727 148.613 46.2498 147.044 44.4438C145.035 42.1346 143.466 39.4364 142.338 36.3491C141.211 33.2739 140.647 30.0452 140.647 26.6871C140.647 22.2212 141.616 18.062 143.563 14.185C145.502 10.3202 148.11 7.25671 151.38 4.99444C154.64 2.72046 158.182 1.58917 162.006 1.58917L162.006 1.58933ZM160.798 3.01981C153.31 4.50256 146.573 16.3323 146.573 27.8923C146.573 40.2521 152.011 48.0214 157.93 51.1946C159.399 51.54 160.916 51.7141 162.482 51.7141C163.916 51.7141 165.307 51.5642 166.657 51.2653C172.645 48.1623 178.53 38.9579 178.53 27.1306C178.53 15.304 171.501 4.74565 164.363 3.09473H164.364C164.707 3.18676 165.056 3.30591 165.407 3.45066C166.359 3.83988 167.187 4.35812 167.909 5.00616C169.372 6.21961 170.623 7.8696 171.655 9.95475C172.685 12.0288 173.479 14.4794 174.025 17.2838C174.58 20.0881 174.853 23.1046 174.853 26.3215C174.853 31.2941 174.351 35.583 173.347 39.1886C172.333 42.8059 170.887 45.587 169.011 47.5308C167.125 49.4752 164.914 50.4414 162.367 50.4414C160.49 50.4414 158.781 49.8872 157.256 48.78C155.723 47.6842 154.41 46.082 153.308 43.9723C152.207 41.8633 151.361 39.3653 150.779 36.455C150.189 33.5444 149.898 30.3159 149.898 26.7695C149.898 23.9413 150.083 21.3018 150.453 18.8512C150.824 16.4003 151.37 14.1849 152.101 12.1937C152.832 10.2022 153.714 8.48203 154.754 7.03289C155.696 5.70136 156.86 4.67644 158.243 3.94562C158.987 3.56133 159.753 3.27847 160.546 3.09781C160.617 3.06976 160.701 3.04371 160.798 3.01951L160.798 3.01981Z" fill="#2B2A29"/>
<path d="M74.8629 0.000154147C78.2289 0.000154147 81.3131 0.718789 84.1151 2.16824C86.9083 3.60566 89.3405 5.71471 91.4027 8.48365C93.1469 10.8284 94.4863 13.4446 95.4381 16.3315C96.3808 19.2179 96.8568 22.1639 96.8568 25.1804C96.8568 29.7168 95.8963 33.8876 93.9756 37.7057C92.0631 41.5235 89.4551 44.5515 86.1592 46.7785C85.7555 47.0509 85.3478 47.3072 84.9348 47.5465C90.8996 43.2929 93.8747 37.2765 93.8716 26.0175C93.8671 9.87653 84.9847 1.55797 75.9011 1.23734C66.3891 0.901916 56.6545 9.32021 56.659 26.0175C56.6614 37.3773 59.387 42.9917 65.1688 47.3041C63.2264 46.1375 61.47 44.6604 59.9008 42.8545C57.8915 40.5451 56.3233 37.8469 55.1952 34.7596C54.0676 31.6844 53.5035 28.4559 53.5035 25.098C53.5035 20.6319 54.4729 16.4725 56.42 12.5958C58.3585 8.73106 60.9672 5.66754 64.2365 3.40512C67.4966 1.13113 71.0387 0 74.8632 0L74.8629 0.000154147ZM73.6545 1.43064C66.1674 2.91339 59.4302 14.7428 59.4302 26.3029C59.4302 38.6629 64.8679 46.4321 70.7871 49.6052C72.2562 49.9507 73.7733 50.1247 75.3387 50.1247C76.7728 50.1247 78.1642 49.9749 79.5138 49.676C85.5015 46.5733 91.3864 37.3689 91.3864 25.5413C91.3864 13.7148 84.3579 3.15632 77.2204 1.50556H77.2207C77.5639 1.59758 77.9123 1.71674 78.2641 1.86148C79.2156 2.25055 80.0434 2.76895 80.7661 3.41683C82.2286 4.63059 83.4799 6.28043 84.5112 8.36573C85.5421 10.4398 86.3352 12.8904 86.8814 15.6947C87.4363 18.4991 87.7096 21.5156 87.7096 24.7323C87.7096 29.705 87.2078 33.9938 86.2033 37.5995C85.1898 41.2167 83.7442 43.9978 81.8676 45.9419C79.9819 47.8863 77.7703 48.8525 75.2238 48.8525C73.3463 48.8525 71.6372 48.2984 70.1129 47.1908C68.58 46.095 67.2668 44.4928 66.1651 42.3833C65.0635 40.2742 64.2179 37.776 63.6361 34.8658C63.0457 31.9554 62.7551 28.7268 62.7551 25.1803C62.7551 22.3521 62.9401 19.7128 63.3099 17.262C63.6804 14.8111 64.2267 12.5958 64.9581 10.6047C65.6891 8.61314 66.5705 6.89285 67.6102 5.44372C68.5531 4.11219 69.7163 3.08742 71.0995 2.35661C71.8436 1.97201 72.6104 1.6893 73.4025 1.50864C73.4738 1.48059 73.5577 1.45469 73.6542 1.43049L73.6545 1.43064Z" fill="#2B2A29"/>
</svg>
