<svg width="200" height="169" viewBox="0 0 200 169" fill="none" xmlns="http://www.w3.org/2000/svg">
<g filter="url(#filter0_bd_1_664)">
<path d="M4 0H196V136.213C196 140.122 193.046 143.398 189.158 143.801L12.4154 162.127C7.91516 162.594 4 159.064 4 154.539V0Z" fill="white"/>
<path d="M4.38143 0.381431H195.619V136.213C195.619 139.926 192.812 143.039 189.119 143.422L12.3761 161.748C8.10084 162.191 4.38143 158.838 4.38143 154.539V0.381431Z" stroke="white" stroke-width="0.762862"/>
</g>
<path fill-rule="evenodd" clip-rule="evenodd" d="M115.303 101.947H119.156C119.834 102.067 120.428 102.425 120.843 102.931V128.229H115.303V127.497H116.034C117.262 127.497 118.173 127.105 118.768 126.321C119.362 125.538 119.659 124.337 119.659 122.718V107.42C119.659 105.788 119.362 104.587 118.772 103.81C118.183 103.033 117.271 102.641 116.034 102.641H115.303V101.947V101.947ZM130.768 102.849C135.838 103.047 139.901 108.447 139.901 115.082C139.901 121.716 135.838 127.116 130.768 127.314V127.308C134.499 127.045 137.479 121.672 137.479 115.082C137.479 108.491 134.499 103.118 130.768 102.854V102.849ZM122.173 101.947H128.542C130.696 101.947 132.572 102.301 134.175 103.007C135.779 103.72 137.128 104.806 138.225 106.27C139.214 107.542 139.979 108.967 140.515 110.56C141.056 112.153 141.324 113.791 141.324 115.474C141.324 117.317 141.031 119.025 140.452 120.593C139.872 122.16 139.053 123.515 137.991 124.651C136.929 125.795 135.667 126.675 134.214 127.298C132.757 127.921 131.178 128.229 129.483 128.229H122.173V101.947L122.173 101.947ZM123.869 102.641V127.497H127.729C128.82 127.497 129.751 127.413 130.511 127.253C131.276 127.092 131.939 126.822 132.514 126.45C133.084 126.084 133.581 125.596 134.01 124.992C135.593 122.873 136.383 119.61 136.383 115.21C136.383 113.765 136.285 112.403 136.091 111.119C135.896 109.835 135.613 108.698 135.238 107.721C134.868 106.745 134.404 105.885 133.839 105.146C133.372 104.542 132.845 104.054 132.26 103.688C131.676 103.315 130.998 103.046 130.233 102.885C129.468 102.724 128.547 102.641 127.47 102.641H123.869L123.869 102.641Z" fill="#323232"/>
<path d="M40.3535 47.6206H45.3271L67.758 79.7195V81.6804H67.1864L46.1413 51.7731V71.802C46.1413 73.7463 46.3082 75.3034 46.648 76.4733C46.9871 77.6352 47.5353 78.5495 48.2914 79.2085C48.9107 79.7277 49.6551 80.0572 50.5424 80.1973C51.0308 80.3127 51.7272 80.3951 52.6385 80.4446V81.3343H39.9189V80.4446C41.2173 80.3455 42.2828 80.0242 43.0985 79.4888C43.9206 78.9449 44.5219 78.1458 44.9152 77.083C45.3023 76.0285 45.4987 74.7021 45.4987 73.1284V54.0633C45.4987 52.8853 45.308 51.8883 44.9328 51.0727C44.552 50.2488 44.0039 49.6147 43.2831 49.178C42.5628 48.7328 41.6934 48.5106 40.6692 48.5106H40.3535V47.6206V47.6206ZM47.4159 47.6206H50.1432L67.079 71.8926V57.3674C67.079 55.5962 66.8587 54.0472 66.4239 52.7208C65.9894 51.3941 65.364 50.3808 64.5365 49.6968C64.0958 49.3098 63.6489 49.0297 63.2025 48.873C62.7558 48.7085 62.1303 48.5931 61.3265 48.5107V47.6207H73.4033V48.4612H64.281L64.2825 48.4626C66.5763 48.7244 67.8836 50.8965 67.881 55.1093C67.7988 55.8649 67.7585 56.6837 67.7578 57.5652L67.7385 76.3663L47.4155 47.6207L47.4159 47.6206Z" fill="#323232"/>
<path d="M103.299 47.6205H107.584L119.038 80.3806L118.526 81.977L117.918 82.0266L108.479 53.5527C107.366 50.1912 105.919 48.5106 104.156 48.5106H103.298V47.6207L103.299 47.6205ZM109.366 47.6201L117.549 47.6205V48.5105H115.804C115.018 48.5105 114.393 48.7328 113.94 49.1861C113.487 49.6391 113.261 50.2736 113.261 51.0893C113.261 51.8637 113.428 52.778 113.767 53.841L120.413 74.0181L125.993 56.6178C126.433 55.2829 126.66 54.1296 126.66 53.1655C126.66 51.7811 126.344 50.6855 125.725 49.8617C125.099 49.0378 124.236 48.593 123.135 48.5105V47.6205H132.954V48.5105C132.025 48.6587 131.191 49.0296 130.459 49.6309C129.727 50.2326 129.06 51.1056 128.452 52.2344C127.851 53.3714 127.238 54.8791 126.624 56.766L119.72 78.1869L109.366 47.6201V47.6201Z" fill="#323232"/>
<path d="M91.2505 101.947H94.268C95.3185 102.274 96.1005 103.195 96.2058 104.308V128.228H91.2746L91.2505 127.535H91.7914C94.2082 127.535 95.4167 125.929 95.4167 122.718V107.419C95.4167 105.788 95.1194 104.587 94.5299 103.81C93.9402 103.033 93.029 102.641 91.7914 102.641H91.2505V101.947V101.947ZM97.4844 101.947H107.581L107.612 101.979C109.687 102.132 111.359 103.871 111.596 106.082L111.598 106.084V101.947H112.462V112.114H112.033C111.643 110.335 111.293 109.006 110.985 108.119C110.674 107.239 110.274 106.398 109.777 105.615C109.178 104.67 108.524 104.002 107.823 103.598C106.648 102.962 105.226 102.641 103.554 102.641H99.6267V115.126H100.684C102.253 115.126 103.501 114.234 104.421 112.455C104.899 111.543 105.25 110.451 105.479 109.185C105.596 108.646 105.698 107.85 105.796 106.796H106.293V124.034H105.796C105.679 123.11 105.542 122.236 105.386 121.414C105.23 120.592 105.055 119.924 104.86 119.411C104.666 118.897 104.412 118.383 104.11 117.869C103.252 116.475 102.034 115.782 100.455 115.782H99.6267V127.535H102.911C103.881 127.535 104.753 127.445 105.527 127.265C106.307 127.079 107.004 126.796 107.623 126.418C108.242 126.032 108.822 125.538 109.363 124.921C110.293 123.881 111.019 122.583 111.531 121.029C111.828 120.136 112.135 118.935 112.461 117.42H112.988V128.229H111.99V124.094L111.988 124.096C111.751 126.307 110.079 128.046 108.005 128.199L107.976 128.229H97.4842V101.947L97.4844 101.947Z" fill="#323232"/>
<path d="M56.4773 101.947H59.978L67.5303 128.047L67.2998 128.807H66.7394L60.9748 108.004C60.4681 106.109 59.9028 104.741 59.2742 103.9C58.6456 103.058 57.8806 102.641 56.9791 102.641H56.4773V101.947V101.947ZM61.1959 101.987L66.8565 101.947L66.8858 102.641C66.0376 102.653 65.414 102.801 65.0194 103.09C64.6247 103.38 64.4297 103.829 64.4297 104.445C64.4297 105.049 64.5127 105.685 64.688 106.347L68.8983 121.716L72.9669 108.376C72.6306 107.098 72.3385 106.161 72.0852 105.557C71.8366 104.953 71.515 104.407 71.1253 103.919C70.7789 103.444 70.4279 103.11 70.058 102.924C69.6927 102.737 69.249 102.641 68.7278 102.641V101.947H71.7456L79.3708 128.298L79.2189 128.807H78.6879L73.2349 109.231L68.1524 125.931L61.1959 101.987V101.987ZM73.0182 101.927L79.5452 101.947V102.641H79.0192C78.1615 102.641 77.4939 102.834 77.0212 103.213C76.5437 103.598 76.3049 104.15 76.3049 104.882C76.3049 105.37 76.373 105.833 76.5046 106.27L80.8023 121.716L85.0128 107.567C85.2221 106.803 85.3293 106.116 85.3293 105.499C85.3293 104.561 85.0467 103.855 84.4915 103.393C83.9359 102.93 83.0782 102.68 81.9132 102.641L81.8893 101.947H89.8952V102.641C89.3642 102.692 88.9305 102.801 88.604 102.969C88.2773 103.142 87.917 103.418 87.527 103.81C86.728 104.632 86.0457 105.968 85.4852 107.811L79.9401 126.434L73.0181 101.927H73.0182Z" fill="#323232"/>
<path fill-rule="evenodd" clip-rule="evenodd" d="M40.8297 89.1431C39.2669 89.1431 37.9999 90.4482 37.9999 92.0578C37.9999 93.6674 39.2669 94.9725 40.8297 94.9725C42.2871 94.9725 43.487 93.8375 43.642 92.3789H89.5991C89.6935 93.5702 90.2023 94.6408 90.9757 95.4376C91.8358 96.3232 93.0243 96.8717 94.337 96.8717C95.6497 96.8717 96.8383 96.3233 97.6983 95.4376L97.724 95.4106C97.9718 95.8132 98.2615 96.1856 98.5869 96.5207C99.716 97.6836 101.277 98.4033 103 98.4033C104.723 98.4033 106.284 97.6836 107.413 96.5195C108.477 95.4229 109.159 93.9313 109.234 92.2773H155.167C155.322 93.7361 156.522 94.8708 157.979 94.8708C159.542 94.8708 160.809 93.566 160.809 91.9564C160.809 90.3466 159.542 89.0417 157.979 89.0417C156.509 89.0417 155.301 90.1965 155.163 91.6733H109.234C109.159 90.0194 108.477 88.5278 107.412 87.4299C106.283 86.2672 104.722 85.5474 103 85.5474C101.278 85.5474 99.7172 86.2672 98.5869 87.4299C98.2615 87.7652 97.9718 88.1376 97.724 88.5402L97.6983 88.5132C96.8382 87.6276 95.6497 87.079 94.337 87.079C93.0243 87.079 91.8357 87.6275 90.9757 88.5132C90.1587 89.355 89.6373 90.5025 89.5874 91.7749H43.6462C43.508 90.298 42.2998 89.1431 40.8297 89.1431V89.1431ZM98.1268 94.9313C98.7315 94.1099 99.0909 93.0858 99.0909 91.9753C99.0909 90.8648 98.7316 89.8408 98.1268 89.0194C98.3701 88.5942 98.6645 88.2034 99.0011 87.8564C100.024 86.8034 101.438 86.1514 103 86.1514C104.562 86.1514 105.976 86.8035 106.999 87.8564C108.022 88.9101 108.655 90.367 108.655 91.9754C108.655 93.5842 108.022 95.0408 106.999 96.0938C105.976 97.1475 104.561 97.7995 103 97.7995C101.439 97.7995 100.025 97.1474 99.0017 96.0938C98.6651 95.7472 98.3701 95.3566 98.1268 94.9315V94.9313ZM97.4221 94.8609C96.9981 93.9931 96.7591 93.013 96.7591 91.9752C96.7591 90.9378 96.9981 89.9576 97.4221 89.0896C97.3773 89.0386 97.331 88.9887 97.2838 88.9401C96.5299 88.1637 95.4877 87.6829 94.337 87.6829C93.1865 87.6829 92.1441 88.1637 91.3903 88.9401C90.6365 89.7165 90.1697 90.7903 90.1697 91.9752C90.1697 93.1602 90.6365 94.2339 91.3903 95.0103C92.1441 95.7868 93.1864 96.2676 94.337 96.2676C95.4876 96.2676 96.5299 95.7868 97.2838 95.0103C97.331 94.9617 97.3773 94.9119 97.4221 94.8609ZM97.8247 89.6254C97.5168 90.3441 97.3456 91.1394 97.3456 91.9753C97.3456 92.8116 97.5168 93.6064 97.8247 94.3252C98.2543 93.6503 98.5044 92.8428 98.5044 91.9753C98.5044 91.108 98.2546 90.3004 97.8247 89.6254V89.6254Z" fill="#323232"/>
<path d="M147.483 48.1114C149.758 48.1114 151.842 48.6139 153.735 49.6276C155.623 50.6327 157.267 52.1072 158.66 54.0435C159.839 55.683 160.744 57.5122 161.387 59.5309C162.025 61.549 162.346 63.6091 162.346 65.7183C162.346 68.8901 161.697 71.8065 160.399 74.4762C159.107 77.1457 157.344 79.2628 155.117 80.82C154.844 81.0105 154.568 81.1897 154.289 81.357C158.32 78.3829 160.331 74.176 160.329 66.3034C160.326 55.0173 154.323 49.2008 148.185 48.9768C141.756 48.7422 135.178 54.6286 135.181 66.3034C135.182 74.2467 137.024 78.1724 140.932 81.1875C139.619 80.3719 138.432 79.339 137.371 78.0763C136.014 76.4616 134.954 74.5749 134.191 72.4162C133.429 70.266 133.048 68.0084 133.048 65.6604C133.048 62.5377 133.703 59.6295 135.019 56.9186C136.329 54.2163 138.092 52.0742 140.301 50.4924C142.505 48.9023 144.898 48.1113 147.483 48.1113L147.483 48.1114ZM146.666 49.1117C141.606 50.1484 137.053 58.42 137.053 66.503C137.053 75.1453 140.728 80.5778 144.728 82.7965C145.721 83.0381 146.746 83.1597 147.804 83.1597C148.773 83.1597 149.714 83.055 150.626 82.846C154.672 80.6763 158.649 74.2404 158.649 65.9705C158.649 57.701 153.899 50.3184 149.076 49.164H149.076C149.308 49.2284 149.544 49.3117 149.781 49.4129C150.424 49.6851 150.984 50.0474 151.472 50.5006C152.461 51.349 153.306 52.5027 154.003 53.9607C154.7 55.4109 155.236 57.1245 155.605 59.0854C155.98 61.0462 156.165 63.1554 156.165 65.4047C156.165 68.8817 155.826 71.8806 155.147 74.4017C154.462 76.931 153.485 78.8756 152.217 80.2347C150.942 81.5943 149.448 82.2699 147.727 82.2699C146.458 82.2699 145.303 81.8824 144.273 81.1082C143.237 80.342 142.349 79.2217 141.605 77.7465C140.86 76.2719 140.289 74.5252 139.896 72.4903C139.497 70.4551 139.3 68.1977 139.3 65.7179C139.3 63.7404 139.426 61.8949 139.675 60.1813C139.926 58.4676 140.295 56.9185 140.789 55.5263C141.283 54.1337 141.879 52.931 142.582 51.9177C143.219 50.9867 144.005 50.27 144.94 49.759C145.442 49.4903 145.96 49.2925 146.496 49.1662C146.544 49.1466 146.601 49.1284 146.666 49.1114L146.666 49.1117Z" fill="#323232"/>
<path d="M88.5923 47.0001C90.8671 47.0001 92.9514 47.5026 94.8449 48.5161C96.7326 49.5212 98.3762 50.9958 99.7699 52.932C100.949 54.5714 101.854 56.4007 102.497 58.4193C103.134 60.4375 103.456 62.4975 103.456 64.6067C103.456 67.7787 102.807 70.695 101.509 73.3646C100.216 76.0341 98.4537 78.1514 96.2263 79.7085C95.9535 79.899 95.678 80.0782 95.3989 80.2455C99.4299 77.2713 101.44 73.0646 101.438 65.192C101.435 53.9059 95.4326 48.0894 89.294 47.8652C82.8658 47.6306 76.2871 53.5169 76.2902 65.192C76.2918 73.1351 78.1338 77.0607 82.0411 80.0761C80.7284 79.2604 79.5414 78.2275 78.481 76.9648C77.1231 75.35 76.0633 73.4634 75.301 71.3047C74.5389 69.1544 74.1577 66.897 74.1577 64.549C74.1577 61.4262 74.8128 58.5179 76.1287 55.8073C77.4387 53.1049 79.2017 50.9629 81.411 49.3809C83.6142 47.7909 86.0079 47 88.5925 47L88.5923 47.0001ZM87.7757 48.0003C82.7159 49.0371 78.163 57.3085 78.163 65.3916C78.163 74.034 81.8378 79.4664 85.8379 81.6851C86.8307 81.9266 87.8559 82.0483 88.9139 82.0483C89.883 82.0483 90.8233 81.9435 91.7354 81.7345C95.7819 79.5651 99.7589 73.1291 99.7589 64.859C99.7589 56.5897 95.009 49.207 90.1855 48.0527H90.1857C90.4176 48.1171 90.6531 48.2004 90.8908 48.3016C91.5339 48.5736 92.0933 48.9361 92.5817 49.3891C93.57 50.2378 94.4157 51.3914 95.1126 52.8495C95.8093 54.2997 96.3453 56.0133 96.7144 57.9741C97.0894 59.935 97.2741 62.0442 97.2741 64.2934C97.2741 67.7704 96.935 70.7692 96.2561 73.2904C95.5712 75.8196 94.5943 77.7642 93.3261 79.1236C92.0517 80.4832 90.5571 81.1588 88.8362 81.1588C87.5674 81.1588 86.4124 80.7713 85.3823 79.9969C84.3464 79.2306 83.4589 78.1103 82.7144 76.6353C81.9699 75.1606 81.3985 73.4138 81.0053 71.3789C80.6063 69.3439 80.4099 67.0864 80.4099 64.6066C80.4099 62.6291 80.5349 60.7836 80.7848 59.07C81.0352 57.3562 81.4044 55.8073 81.8987 54.4151C82.3927 53.0225 82.9883 51.8196 83.691 50.8064C84.3282 49.8753 85.1143 49.1588 86.049 48.6478C86.5519 48.3789 87.0701 48.1812 87.6054 48.0549C87.6536 48.0353 87.7103 48.0172 87.7755 48.0002L87.7757 48.0003Z" fill="#323232"/>
<defs>
<filter id="filter0_bd_1_664" x="-6.68006" y="-10.6801" width="213.36" height="183.529" filterUnits="userSpaceOnUse" color-interpolation-filters="sRGB">
<feFlood flood-opacity="0" result="BackgroundImageFix"/>
<feGaussianBlur in="BackgroundImageFix" stdDeviation="5.34003"/>
<feComposite in2="SourceAlpha" operator="in" result="effect1_backgroundBlur_1_664"/>
<feColorMatrix in="SourceAlpha" type="matrix" values="0 0 0 0 0 0 0 0 0 0 0 0 0 0 0 0 0 0 127 0" result="hardAlpha"/>
<feOffset dy="3.05145"/>
<feGaussianBlur stdDeviation="1.52572"/>
<feComposite in2="hardAlpha" operator="out"/>
<feColorMatrix type="matrix" values="0 0 0 0 0 0 0 0 0 0 0 0 0 0 0 0 0 0 0.25 0"/>
<feBlend mode="normal" in2="effect1_backgroundBlur_1_664" result="effect2_dropShadow_1_664"/>
<feBlend mode="normal" in="SourceGraphic" in2="effect2_dropShadow_1_664" result="shape"/>
</filter>
</defs>
</svg>
