<svg width="388" height="118" viewBox="0 0 388 118" fill="none" xmlns="http://www.w3.org/2000/svg">
<path fill-rule="evenodd" clip-rule="evenodd" d="M313.002 106.645C317.685 105.358 322.498 105.024 327.481 105.505C322.904 109.81 315.636 112.505 309.434 111.78L306.054 108.4C305.254 101.097 310.116 95.0083 314.747 90.11C315.703 95.813 313.106 102.159 309.268 106.274C312.552 103.794 315.711 101.072 318.719 98.1076C317.774 92.5272 318.973 84.6169 322.282 79.9852C324.564 84 325.227 89.5929 322.883 93.7465C325.022 91.3546 327.025 88.8657 328.895 86.2966C328.724 86.5301 326.908 82.5853 326.469 78.935C326.031 75.2854 327.187 72.1596 328.939 68.4732C331.708 71.1918 332.726 77.494 331.719 82.1932C333.567 79.3512 335.257 76.4179 336.78 73.4109C336.473 73.1826 336.173 72.8943 335.882 72.5521C331.775 67.6801 331.752 61.8376 333.635 56.1486C333.642 56.1377 333.645 56.1289 333.648 56.1143C337.581 59.6318 339.782 65.1756 338.258 70.5784C340.101 66.7029 341.264 63.3728 342.562 59.2879C337.59 55.0649 336.52 49.3093 337.315 43.0233C340.837 46.2142 343.407 50.7261 343.668 55.5343C344.679 51.8205 345.465 48.0407 346.016 44.2145C344.956 43.6766 343.855 42.8045 342.792 41.7323C341.161 40.0835 340.206 38.1127 339.638 35.9926C339.064 33.8501 338.891 31.5541 338.82 29.2803C342.372 31.8864 345.576 35.7087 346.521 40.0645C346.686 38.4032 346.737 36.7405 346.787 35.0814C346.834 33.5682 346.88 32.057 347.013 30.5513C344.149 29.5643 341.423 27.7743 339.658 25.2812C338.391 23.4604 338.123 21.2261 337.858 19.0244C337.755 18.1658 337.652 17.3117 337.491 16.4892C337.515 16.6066 338.12 16.9046 338.555 17.1184C342.702 19.161 346.121 23.4738 347.322 27.9255C348.216 21.761 350.894 16.7142 354.707 11.8015C356.012 19.1729 353.256 26.2602 349.561 30.1261C349.578 32.7564 349.486 35.3755 349.292 37.9825C351.34 34.0544 354.116 30.5748 357.199 27.4122C358.97 34.057 353.549 42.4542 348.352 46.0304C347.901 48.8553 347.33 51.6564 346.631 54.4265C349.379 50.2452 352.969 46.7057 356.882 43.6159C356.142 50.8928 351.674 58.5634 344.616 61.3196C343.546 64.5407 342.304 67.7045 340.9 70.7969C344.447 66.3621 348.96 62.7948 353.871 59.9781C352.137 66.4595 347.955 71.7917 341.86 74.8272C340.767 75.3719 339.621 75.8012 338.336 76.0342C336.371 79.752 334.791 82.3051 332.344 85.7588C336.919 80.9269 342.02 78.4309 348.163 75.9493C344.739 83.5045 337.978 88.9958 329.614 89.6519C327.357 92.605 324.916 95.4421 322.305 98.1493C327.939 94.9213 333.636 92.0872 339.996 90.6295C334.929 97.399 328.273 103.643 319.082 101.347C317.119 103.207 315.09 104.97 313.002 106.645ZM346.388 21.1531C349.992 15.5954 346.88 5.37435 342.168 1.59895C340.669 7.56997 342.228 15.5065 346.388 21.1531Z" fill="url(#paint0_linear_4_675)"/>
<path fill-rule="evenodd" clip-rule="evenodd" d="M74.9436 106.214C70.2612 104.928 65.4482 104.593 60.4647 105.075C65.0419 109.379 72.3102 112.074 78.5117 111.35L81.8914 107.97C82.6914 100.666 77.83 94.5777 73.1987 89.6793C72.243 95.3824 74.8399 101.728 78.6778 105.843C75.3941 103.364 72.2352 100.641 69.2272 97.677C70.1713 92.0965 68.9723 84.1863 65.6642 79.5545C63.3821 83.5693 62.719 89.1622 65.0631 93.3158C62.9237 90.9239 60.9207 88.435 59.0506 85.8659C59.2214 86.0995 61.0378 82.1546 61.4765 78.5043C61.9144 74.8548 60.7586 71.7289 59.0072 68.0425C56.2375 70.7612 55.2199 77.0634 56.2271 81.7626C54.3788 78.9205 52.6888 75.9872 51.1659 72.9803C51.4731 72.7519 51.773 72.4637 52.0641 72.1215C56.1712 67.2495 56.1935 61.4069 54.3104 55.7179C54.3038 55.707 54.3009 55.6982 54.298 55.6836C50.3644 59.2012 48.1636 64.7449 49.6876 70.1477C47.845 66.2723 46.6818 62.9421 45.3842 58.8572C50.3563 54.6342 51.4257 48.8786 50.6311 42.5927C47.1092 45.7835 44.5392 50.2955 44.2778 55.1036C43.2666 51.3898 42.4813 47.61 41.9298 43.7838C42.9897 43.2459 44.0906 42.3738 45.1534 41.3017C46.7851 39.6529 47.7402 37.6821 48.3081 35.5619C48.8814 33.4195 49.0545 31.1235 49.1258 28.8497C45.5736 31.4557 42.3695 35.2781 41.425 39.6338C41.2596 37.9726 41.2093 36.3098 41.1584 34.6507C41.1117 33.1375 41.0657 31.6263 40.9332 30.1206C43.7973 29.1336 46.5223 27.3436 48.2875 24.8505C49.5546 23.0298 49.823 20.7954 50.0875 18.5937C50.1906 17.7352 50.2937 16.881 50.4548 16.0586C50.4306 16.1759 49.8253 16.4739 49.3912 16.6877C45.2435 18.7304 41.8249 23.0431 40.6233 27.4948C39.7298 21.3303 37.0514 16.2835 33.239 11.3708C31.9335 18.7422 34.6896 25.8296 38.3848 29.6954C38.3679 32.3258 38.4595 34.9448 38.6543 37.5518C36.6058 33.6237 33.8296 30.1442 30.7472 26.9816C28.9762 33.6263 34.3965 42.0235 39.5939 45.5997C40.0445 48.4246 40.6159 51.2258 41.3152 53.9958C38.5669 49.8145 34.9764 46.275 31.0636 43.1852C31.8043 50.4621 36.2717 58.1328 43.3299 60.8889C44.4 64.1101 45.642 67.2739 47.0459 70.3662C43.4984 65.9314 38.9854 62.3641 34.0746 59.5474C35.809 66.0289 39.9913 71.3611 46.0855 74.3966C47.1788 74.9412 48.3246 75.3705 49.6098 75.6035C51.575 79.3214 53.1547 81.8744 55.6015 85.3282C51.0264 80.4962 45.9256 78.0002 39.7826 75.5186C43.2066 83.0739 49.9675 88.5652 58.3316 89.2213C60.5886 92.1744 63.0302 95.0115 65.6411 97.7187C60.0067 94.4906 54.3095 91.6566 47.95 90.1988C53.0166 96.9684 59.6725 103.213 68.8636 100.916C70.8271 102.776 72.8562 104.54 74.9436 106.214ZM41.5575 20.7224C37.9538 15.1648 41.0663 4.94368 45.7782 1.16829C47.2764 7.13931 45.7174 15.0759 41.5575 20.7224Z" fill="url(#paint1_linear_4_675)"/>
<defs>
<linearGradient id="paint0_linear_4_675" x1="365.641" y1="22.736" x2="274.768" y2="113.609" gradientUnits="userSpaceOnUse">
<stop stop-color="#FFD48D"/>
<stop offset="1" stop-color="#FFB73F"/>
</linearGradient>
<linearGradient id="paint1_linear_4_675" x1="22.3045" y1="22.3053" x2="113.178" y2="113.179" gradientUnits="userSpaceOnUse">
<stop stop-color="#FFD48D"/>
<stop offset="1" stop-color="#FFB73F"/>
</linearGradient>
</defs>
</svg>
