<svg width="159" height="101" viewBox="0 0 159 101" fill="none" xmlns="http://www.w3.org/2000/svg">
<path fill-rule="evenodd" clip-rule="evenodd" d="M98.748 67.8369H103.67C104.537 67.9842 105.295 68.4272 105.826 69.0517V100.285H98.748V99.3808H99.6819C101.251 99.3808 102.414 98.8971 103.174 97.9294C103.933 96.9621 104.313 95.4797 104.313 93.4811V74.5931C104.313 72.579 103.933 71.0961 103.18 70.1368C102.427 69.1775 101.263 68.6935 99.6819 68.6935H98.748V67.8369ZM118.503 68.9506C124.98 69.1941 130.171 75.8619 130.171 84.0527C130.171 92.2432 124.979 98.911 118.503 99.1545V99.1482C123.27 98.823 127.076 92.1896 127.076 84.0527C127.076 75.9155 123.27 69.2821 118.503 68.9567V68.9506ZM107.525 67.8369H115.661C118.412 67.8369 120.808 68.2733 122.856 69.1457C124.904 70.0257 126.628 71.3661 128.029 73.1737C129.292 74.7438 130.269 76.504 130.955 78.4709C131.646 80.4373 131.988 82.4593 131.988 84.5368C131.988 86.8124 131.614 88.9216 130.874 90.8567C130.133 92.7913 129.087 94.4643 127.73 95.8678C126.373 97.2794 124.761 98.366 122.906 99.1348C121.045 99.9043 119.027 100.285 116.862 100.285H107.525V67.8371L107.525 67.8369ZM109.691 68.6935V99.3808H114.621C116.015 99.3808 117.204 99.2776 118.175 99.0792C119.152 98.8813 119.999 98.5478 120.734 98.0881C121.462 97.6361 122.097 97.0336 122.645 96.288C124.667 93.6716 125.676 89.6432 125.676 84.2117C125.676 82.4276 125.551 80.7463 125.303 79.1606C125.054 77.5748 124.693 76.171 124.213 74.9657C123.74 73.7606 123.149 72.698 122.427 71.7858C121.829 71.0405 121.157 70.4381 120.41 69.9861C119.663 69.526 118.798 69.193 117.82 68.995C116.843 68.7964 115.667 68.6934 114.291 68.6934H109.691L109.691 68.6935Z" fill="white"/>
<path d="M3.00632 0.765808H9.35955L38.0131 40.3956V42.8166H37.2829L10.3997 5.8925V30.6205C10.3997 33.021 10.6129 34.9435 11.0469 36.3878C11.4801 37.8223 12.1803 38.9512 13.1463 39.7648C13.9373 40.4058 14.8883 40.8126 16.0217 40.9855C16.6456 41.1279 17.5352 41.2297 18.6993 41.2908V42.3893H2.45117V41.2908C4.10966 41.1685 5.47072 40.7718 6.51271 40.1107C7.56298 39.4393 8.33107 38.4527 8.83341 37.1406C9.32787 35.8386 9.57877 34.2011 9.57877 32.2581V8.72012C9.57877 7.26566 9.33522 6.03475 8.85587 5.0278C8.36943 4.01061 7.66938 3.22775 6.74864 2.68855C5.82843 2.13897 4.71787 1.86457 3.40961 1.86457H3.00632V0.765808ZM12.0278 0.765808H15.5117L37.1457 30.7324V12.7994C37.1457 10.6127 36.8643 8.70016 36.3089 7.06259C35.7539 5.42462 34.9549 4.17362 33.8979 3.32915C33.335 2.85129 32.764 2.50544 32.1938 2.31209C31.6233 2.10889 30.8242 1.96651 29.7974 1.86471V0.765941H45.2244V1.80363H33.5716L33.5734 1.80536C36.5036 2.12859 38.1735 4.81023 38.1702 10.0114C38.0653 10.9444 38.0137 11.9552 38.0129 13.0436L37.9881 36.2557L12.0274 0.765941L12.0278 0.765808Z" fill="white"/>
<path d="M83.4143 0.76634H88.8891L103.52 41.2124L102.865 43.1834L102.089 43.2446L90.0324 8.0903C88.6104 3.94008 86.7615 1.86524 84.5096 1.86524H83.4141V0.766474L83.4143 0.76634ZM91.1651 0.765808L101.618 0.76634V1.86511H99.3888C98.3844 1.86511 97.5863 2.1395 97.008 2.6992C96.4296 3.25849 96.1404 4.04188 96.1404 5.04896C96.1404 6.00494 96.3539 7.13378 96.7872 8.44626L105.277 33.3571L112.404 11.8744C112.967 10.2263 113.256 8.80249 113.256 7.61217C113.256 5.90301 112.853 4.55034 112.062 3.53328C111.263 2.51609 110.16 1.96691 108.753 1.86511V0.76634H121.297V1.86511C120.11 2.04808 119.045 2.50598 118.109 3.24838C117.174 3.99118 116.322 5.06905 115.546 6.46271C114.777 7.86647 113.994 9.72787 113.211 12.0574L104.392 38.504L91.1651 0.765808Z" fill="white"/>
<path d="M68.0234 67.837H71.8779C73.2199 68.2412 74.2188 69.3777 74.3533 70.752V100.285H68.0542L68.0234 99.4286H68.7143C71.8016 99.4286 73.3454 97.4458 73.3454 93.4811V74.5931C73.3454 72.579 72.9656 71.0961 72.2125 70.1368C71.4592 69.1775 70.2952 68.6935 68.7143 68.6935H68.0234V67.8369V67.837ZM75.9866 67.837H88.8844L88.9241 67.8767C91.5744 68.0657 93.7097 70.213 94.013 72.9427L94.0149 72.9444V67.837H95.1186V80.3898H94.5714C94.0733 78.1932 93.6254 76.552 93.2328 75.4575C92.8347 74.3711 92.3241 73.3323 91.6892 72.3652C90.9236 71.1996 90.0892 70.3746 89.1933 69.8752C87.6928 69.0903 85.8753 68.6938 83.7402 68.6938H78.7232V84.1086H80.0741C82.0783 84.1086 83.6717 83.0065 84.8481 80.81C85.4583 79.6843 85.9065 78.3362 86.199 76.7739C86.3482 76.1079 86.4788 75.1247 86.6036 73.8242H87.2385V95.1067H86.6036C86.4542 93.9651 86.2795 92.8868 86.0804 91.8719C85.8814 90.8571 85.6571 90.0323 85.4085 89.3981C85.1598 88.7634 84.8357 88.1293 84.45 87.4947C83.3544 85.7741 81.7982 84.9179 79.7814 84.9179H78.7232V99.4289H82.9184C84.1572 99.4289 85.2713 99.3178 86.2608 99.0957C87.2568 98.866 88.1474 98.5167 88.9377 98.0491C89.7284 97.5733 90.4688 96.9625 91.1602 96.2016C92.3489 94.9171 93.2759 93.3152 93.93 91.3962C94.3094 90.2941 94.702 88.8113 95.1184 86.9399H95.7909V100.285H94.516V95.1805L94.5142 95.1822C94.2109 97.9123 92.0756 100.059 89.4252 100.248L89.3882 100.285H75.9864V67.8374L75.9866 67.837Z" fill="white"/>
<path d="M23.6035 67.838H28.0753L37.7228 100.061L37.4283 100.999H36.7125L29.3487 75.3159C28.7014 72.9766 27.9793 71.2876 27.1763 70.2488C26.3734 69.2098 25.3961 68.6944 24.2445 68.6944H23.6035V67.8378V67.838ZM29.6311 67.8876L36.8621 67.838L36.8995 68.6945C35.8159 68.7101 35.0194 68.8928 34.5153 69.2496C34.0111 69.6065 33.762 70.1616 33.762 70.9225C33.762 71.6679 33.868 72.4531 34.0919 73.2698L39.4703 92.2452L44.6675 75.7758C44.2379 74.1978 43.8648 73.0401 43.5412 72.2945C43.2237 71.5492 42.8128 70.8753 42.315 70.2729C41.8725 69.686 41.4242 69.2733 40.9517 69.0436C40.485 68.8135 39.9182 68.6945 39.2524 68.6945V67.838H43.1074L52.8479 100.371L52.6538 100.999H51.9756L45.0098 76.8302L38.5175 97.4488L29.6311 67.8876ZM44.733 67.8135L53.0708 67.8381V68.6947H52.3988C51.3032 68.6947 50.4504 68.9326 49.8466 69.4005C49.2366 69.8761 48.9316 70.5582 48.9316 71.4619C48.9316 72.0644 49.0184 72.6356 49.1866 73.1748L54.6766 92.2452L60.0551 74.7764C60.3224 73.8327 60.4594 72.9845 60.4594 72.2232C60.4594 71.0655 60.0984 70.1933 59.3891 69.6226C58.6794 69.0514 57.5838 68.7423 56.0957 68.6945L56.065 67.838H66.2919V68.6945C65.6136 68.7579 65.0595 68.8928 64.6425 69.0991C64.2251 69.3131 63.7649 69.6541 63.2667 70.1378C62.2461 71.1526 61.3746 72.8019 60.6585 75.0778L53.5751 98.0695L44.7329 67.8135H44.733Z" fill="white"/>
<path fill-rule="evenodd" clip-rule="evenodd" d="M3.6148 52.0314C1.61852 52.0314 0 53.6426 0 55.6299C0 57.6171 1.61852 59.2284 3.6148 59.2284C5.4766 59.2284 7.0093 57.8271 7.20727 56.0263H65.9135C66.034 57.4971 66.6839 58.8189 67.6719 59.8026C68.7706 60.896 70.2889 61.5732 71.9657 61.5732C73.6425 61.5732 75.1609 60.8961 76.2594 59.8026L76.2923 59.7693C76.6088 60.2663 76.9788 60.7261 77.3945 61.1398C78.8369 62.5756 80.8303 63.4641 83.0318 63.4641C85.2326 63.4641 87.2266 62.5756 88.669 61.1383C90.0287 59.7845 90.8997 57.9429 90.9949 55.9009H149.67C149.868 57.7019 151.401 59.1029 153.263 59.1029C155.259 59.1029 156.878 57.4919 156.878 55.5046C156.878 53.5172 155.259 51.9061 153.263 51.9061C151.385 51.9061 149.842 53.3319 149.665 55.1552H90.9949C90.8997 53.1132 90.0287 51.2717 88.6675 49.9162C87.2252 48.4808 85.2317 47.592 83.0318 47.592C80.8317 47.592 78.8383 48.4808 77.3945 49.9162C76.9788 50.3302 76.6088 50.7899 76.2923 51.287L76.2594 51.2537C75.1607 50.1603 73.6425 49.4829 71.9657 49.4829C70.2889 49.4829 68.7705 50.1601 67.6719 51.2537C66.6282 52.293 65.9622 53.7097 65.8985 55.2806H7.21262C7.03617 53.4572 5.49278 52.0314 3.6148 52.0314ZM76.8068 59.1775C77.5793 58.1634 78.0383 56.8991 78.0383 55.5281C78.0383 54.157 77.5794 52.8927 76.8068 51.8786C77.1176 51.3536 77.4936 50.8711 77.9236 50.4428C79.2304 49.1427 81.0369 48.3377 83.0321 48.3377C85.0269 48.3377 86.8336 49.1428 88.1403 50.4428C89.4464 51.7437 90.2551 53.5424 90.2551 55.5282C90.2551 57.5144 89.4464 59.3127 88.1397 60.6128C86.833 61.9137 85.0265 62.7187 83.0321 62.7187C81.0373 62.7187 79.2312 61.9136 77.9244 60.6128C77.4944 60.1849 77.1176 59.7026 76.8068 59.1778V59.1775ZM75.9066 59.0906C75.365 58.0193 75.0597 56.8091 75.0597 55.5279C75.0597 54.2471 75.365 53.037 75.9066 51.9652C75.8494 51.9023 75.7902 51.8407 75.7299 51.7807C74.7669 50.8221 73.4355 50.2285 71.9657 50.2285C70.496 50.2285 69.1644 50.8221 68.2015 51.7807C67.2386 52.7393 66.6422 54.0649 66.6422 55.5279C66.6422 56.9909 67.2386 58.3166 68.2015 59.2751C69.1644 60.2337 70.4959 60.8273 71.9657 60.8273C73.4354 60.8273 74.7669 60.2337 75.7299 59.2751C75.7902 59.2151 75.8494 59.1536 75.9066 59.0906ZM76.4209 52.6269C76.0276 53.5142 75.8089 54.496 75.8089 55.5281C75.8089 56.5606 76.0276 57.5418 76.4209 58.4293C76.9696 57.596 77.2891 56.599 77.2891 55.5281C77.2891 54.4572 76.97 53.4601 76.4209 52.6269Z" fill="white"/>
<path d="M139.855 1.37104C142.761 1.37104 145.423 1.99142 147.842 3.24295C150.253 4.48384 152.353 6.30425 154.133 8.69487C155.639 10.719 156.795 12.9774 157.617 15.4696C158.431 17.9613 158.842 20.5046 158.842 23.1087C158.842 27.0247 158.012 30.6253 156.354 33.9214C154.703 37.2171 152.452 39.8311 149.607 41.7535C149.258 41.9888 148.906 42.21 148.55 42.4165C153.699 38.7447 156.267 33.5508 156.264 23.8311C156.261 9.89716 148.593 2.71599 140.751 2.43947C132.54 2.14977 124.136 9.41718 124.14 23.8311C124.142 33.6381 126.495 38.4848 131.486 42.2073C129.809 41.2004 128.293 39.9251 126.939 38.3661C125.204 36.3725 123.85 34.0433 122.876 31.3781C121.903 28.7234 121.416 25.9362 121.416 23.0372C121.416 19.1819 122.253 15.5914 123.934 12.2445C125.607 8.90818 127.859 6.26353 130.681 4.31058C133.496 2.34752 136.554 1.37091 139.855 1.37091L139.855 1.37104ZM138.812 2.60594C132.348 3.88595 126.532 14.0982 126.532 24.0776C126.532 34.7475 131.227 41.4545 136.336 44.1938C137.605 44.492 138.914 44.6422 140.266 44.6422C141.504 44.6422 142.705 44.5129 143.87 44.2549C149.039 41.5761 154.119 33.6302 154.119 23.4201C154.119 13.2105 148.052 4.0958 141.89 2.67061H141.891C142.187 2.75006 142.487 2.85292 142.791 2.97787C143.613 3.31388 144.327 3.76126 144.951 4.32069C146.214 5.36823 147.294 6.79262 148.184 8.59267C149.074 10.3831 149.759 12.4987 150.23 14.9197C150.709 17.3405 150.945 19.9445 150.945 22.7216C150.945 27.0143 150.512 30.7168 149.645 33.8294C148.77 36.9521 147.522 39.3529 145.902 41.031C144.274 42.7095 142.365 43.5436 140.167 43.5436C138.546 43.5436 137.07 43.0652 135.755 42.1094C134.431 41.1634 133.298 39.7802 132.346 37.959C131.396 36.1383 130.666 33.9819 130.163 31.4695C129.654 28.9569 129.403 26.1699 129.403 23.1083C129.403 20.6669 129.562 18.3883 129.882 16.2727C130.202 14.1569 130.673 12.2444 131.305 10.5255C131.936 8.80625 132.696 7.32131 133.594 6.07031C134.408 4.92084 135.412 4.03605 136.606 3.40517C137.249 3.07342 137.91 2.82923 138.594 2.67328C138.656 2.64906 138.728 2.62657 138.812 2.60568L138.812 2.60594Z" fill="white"/>
<path d="M64.6264 0.000133071C67.5322 0.000133071 70.1947 0.620509 72.6135 1.87178C75.0249 3.11266 77.1245 4.93334 78.9047 7.32369C80.4104 9.34783 81.5667 11.6063 82.3884 14.0985C83.2022 16.5902 83.6131 19.1335 83.6131 21.7375C83.6131 25.6537 82.7839 29.2542 81.1259 32.5502C79.4749 35.846 77.2234 38.46 74.3782 40.3825C74.0297 40.6176 73.6777 40.8389 73.3212 41.0454C78.4704 37.3735 81.0387 32.1797 81.036 22.4601C81.0322 8.52612 73.3642 1.34495 65.5227 1.06816C57.3113 0.778598 48.9076 8.04587 48.9115 22.4601C48.9136 32.2668 51.2666 37.1135 56.2578 40.8363C54.581 39.8292 53.0647 38.554 51.7101 36.995C49.9755 35.0014 48.6217 32.6721 47.6479 30.007C46.6745 27.3522 46.1875 24.5652 46.1875 21.6663C46.1875 17.8109 47.0243 14.2202 48.7052 10.8736C50.3787 7.53727 52.6307 4.89262 55.4529 2.93954C58.2673 0.976474 61.3251 0 64.6267 0L64.6264 0.000133071ZM63.5832 1.23503C57.1199 2.51504 51.3039 12.727 51.3039 22.7066C51.3039 33.3766 55.9981 40.0835 61.1079 42.8227C62.3762 43.121 63.6858 43.2712 65.0372 43.2712C66.2751 43.2712 67.4763 43.1418 68.6414 42.8838C73.8104 40.2054 78.8907 32.2594 78.8907 22.049C78.8907 11.8396 72.8231 2.72476 66.6616 1.2997H66.6619C66.9581 1.37915 67.2588 1.48201 67.5626 1.60696C68.384 1.94283 69.0986 2.39035 69.7225 2.94965C70.985 3.99745 72.0652 5.42171 72.9555 7.22189C73.8455 9.01236 74.5301 11.1279 75.0016 13.5487C75.4807 15.9697 75.7166 18.5738 75.7166 21.3507C75.7166 25.6434 75.2834 29.3459 74.4163 32.4585C73.5414 35.5812 72.2934 37.982 70.6734 39.6603C69.0455 41.3389 67.1363 42.173 64.938 42.173C63.3172 42.173 61.8417 41.6946 60.5258 40.7385C59.2026 39.7925 58.0689 38.4093 57.1178 36.5882C56.1669 34.7676 55.4369 32.6109 54.9347 30.0986C54.425 27.5861 54.1741 24.799 54.1741 21.7374C54.1741 19.2959 54.3338 17.0175 54.653 14.9018C54.9729 12.786 55.4445 10.8736 56.0759 9.15475C56.7069 7.43547 57.4678 5.9504 58.3654 4.6994C59.1794 3.54993 60.1835 2.66528 61.3776 2.03439C62.0199 1.70238 62.6819 1.45832 63.3657 1.30236C63.4272 1.27815 63.4997 1.25579 63.583 1.2349L63.5832 1.23503Z" fill="white"/>
</svg>
