<svg width="200" height="193" viewBox="0 0 200 193" fill="none" xmlns="http://www.w3.org/2000/svg">
<g filter="url(#filter0_bd_538_1255)">
<path d="M4 0H196V157.385C196 161.25 193.11 164.504 189.272 164.961L12.5297 185.985C7.99135 186.525 4 182.981 4 178.41V0Z" fill="white" fill-opacity="0.4" shape-rendering="crispEdges"/>
<path d="M4.38143 0.381431H195.619V157.385C195.619 161.057 192.873 164.148 189.227 164.582L12.4847 185.607C8.17321 186.119 4.38143 182.752 4.38143 178.41V0.381431Z" stroke="white" stroke-width="0.762862" shape-rendering="crispEdges"/>
</g>
<path fill-rule="evenodd" clip-rule="evenodd" d="M115.303 78.9473H119.156C119.834 79.0666 120.428 79.4254 120.843 79.9312V105.229H115.303V104.497H116.034C117.262 104.497 118.173 104.105 118.768 103.321C119.362 102.538 119.659 101.337 119.659 99.7183V84.4195C119.659 82.7882 119.362 81.5871 118.772 80.8101C118.183 80.0331 117.271 79.6411 116.034 79.6411H115.303V78.9473V78.9473ZM130.768 79.8493C135.838 80.0465 139.901 85.4472 139.901 92.0815C139.901 98.7156 135.838 104.116 130.768 104.314V104.308C134.499 104.045 137.479 98.6721 137.479 92.0815C137.479 85.4907 134.499 80.1178 130.768 79.8543V79.8493ZM122.173 78.9473H128.542C130.696 78.9473 132.572 79.3007 134.175 80.0073C135.779 80.7201 137.128 81.8058 138.225 83.2699C139.214 84.5416 139.979 85.9673 140.515 87.5604C141.056 89.1532 141.324 90.7909 141.324 92.4736C141.324 94.3168 141.031 96.0252 140.452 97.5926C139.872 99.1595 139.053 100.515 137.991 101.651C136.929 102.795 135.667 103.675 134.214 104.298C132.757 104.921 131.178 105.229 129.483 105.229H122.173V78.9474L122.173 78.9473ZM123.869 79.6411V104.497H127.729C128.82 104.497 129.751 104.413 130.511 104.253C131.276 104.092 131.939 103.822 132.514 103.45C133.084 103.084 133.581 102.596 134.01 101.992C135.593 99.8725 136.383 96.6097 136.383 92.2103C136.383 90.7653 136.285 89.4034 136.091 88.1191C135.896 86.8346 135.613 85.6976 135.238 84.7213C134.868 83.7452 134.404 82.8846 133.839 82.1457C133.372 81.542 132.845 81.0541 132.26 80.6881C131.676 80.3154 130.998 80.0457 130.233 79.8853C129.468 79.7244 128.547 79.641 127.47 79.641H123.869L123.869 79.6411Z" fill="white"/>
<path d="M40.3535 24.6201H45.3271L67.758 56.719V58.6799H67.1864L46.1413 28.7726V48.8015C46.1413 50.7458 46.3082 52.3029 46.648 53.4728C46.9871 54.6347 47.5353 55.5491 48.2914 56.208C48.9107 56.7272 49.6551 57.0567 50.5424 57.1968C51.0308 57.3122 51.7272 57.3946 52.6385 57.4441V58.3338H39.9189V57.4441C41.2173 57.345 42.2828 57.0237 43.0985 56.4883C43.9206 55.9444 44.5219 55.1453 44.9152 54.0826C45.3023 53.028 45.4987 51.7016 45.4987 50.1279V31.0629C45.4987 29.8848 45.308 28.8878 44.9328 28.0722C44.552 27.2483 44.0039 26.6142 43.2831 26.1775C42.5628 25.7323 41.6934 25.5101 40.6692 25.5101H40.3535V24.6201V24.6201ZM47.4159 24.6201H50.1432L67.079 48.8921V34.367C67.079 32.5958 66.8587 31.0467 66.4239 29.7203C65.9894 28.3936 65.364 27.3803 64.5365 26.6963C64.0958 26.3093 63.6489 26.0292 63.2025 25.8726C62.7558 25.708 62.1303 25.5926 61.3265 25.5102V24.6202H73.4033V25.4607H64.281L64.2825 25.4621C66.5763 25.7239 67.8836 27.896 67.881 32.1088C67.7988 32.8645 67.7585 33.6832 67.7578 34.5647L67.7385 53.3658L47.4155 24.6202L47.4159 24.6201Z" fill="white"/>
<path d="M103.299 24.6205H107.585L119.039 57.3806L118.526 58.977L117.918 59.0266L108.48 30.5527C107.367 27.1912 105.919 25.5106 104.156 25.5106H103.299V24.6207L103.299 24.6205ZM109.367 24.6201L117.549 24.6205V25.5105H115.804C115.018 25.5105 114.393 25.7328 113.941 26.1861C113.488 26.6391 113.261 27.2736 113.261 28.0893C113.261 28.8637 113.429 29.778 113.768 30.841L120.414 51.0181L125.993 33.6178C126.434 32.2829 126.66 31.1296 126.66 30.1655C126.66 28.7811 126.344 27.6855 125.726 26.8617C125.1 26.0378 124.236 25.593 123.135 25.5105V24.6205H132.955V25.5105C132.026 25.6587 131.192 26.0296 130.459 26.6309C129.727 27.2326 129.06 28.1056 128.452 29.2344C127.851 30.3714 127.238 31.8791 126.625 33.766L119.721 55.1869L109.367 24.6201V24.6201Z" fill="white"/>
<path d="M91.251 78.9474H94.2684C95.3189 79.2747 96.1009 80.1953 96.2062 81.3084V105.229H91.275L91.251 104.536H91.7918C94.2086 104.536 95.4172 102.93 95.4172 99.7183V84.4195C95.4172 82.7882 95.1199 81.5871 94.5303 80.8101C93.9406 80.0331 93.0294 79.6411 91.7918 79.6411H91.251V78.9473V78.9474ZM97.4848 78.9474H107.582L107.613 78.9795C109.687 79.1325 111.359 80.8718 111.597 83.0828L111.598 83.0842V78.9474H112.462V89.1147H112.034C111.644 87.3355 111.293 86.0062 110.986 85.1197C110.674 84.2397 110.274 83.3984 109.777 82.615C109.178 81.6709 108.525 81.0027 107.823 80.5982C106.649 79.9625 105.226 79.6413 103.555 79.6413H99.6271V92.1268H100.685C102.254 92.1268 103.501 91.2341 104.422 89.4551C104.9 88.5433 105.25 87.4514 105.479 86.186C105.596 85.6465 105.698 84.8501 105.796 83.7968H106.293V101.035H105.796C105.679 100.11 105.542 99.2369 105.387 98.4149C105.231 97.5929 105.055 96.9249 104.861 96.4112C104.666 95.897 104.412 95.3834 104.11 94.8694C103.253 93.4758 102.034 92.7823 100.455 92.7823H99.6271V104.536H102.911C103.881 104.536 104.753 104.446 105.528 104.266C106.307 104.08 107.005 103.797 107.623 103.418C108.242 103.033 108.822 102.538 109.363 101.922C110.294 100.881 111.019 99.5839 111.532 98.0295C111.828 97.1369 112.136 95.9358 112.462 94.4201H112.988V105.229H111.99V101.095L111.989 101.096C111.751 103.307 110.08 105.047 108.005 105.199L107.976 105.229H97.4846V78.9477L97.4848 78.9474Z" fill="white"/>
<path d="M56.4775 78.9476H59.9782L67.5306 105.047L67.3 105.807H66.7397L60.975 85.0044C60.4683 83.1097 59.9031 81.7416 59.2745 80.9003C58.6459 80.0587 57.8808 79.6413 56.9793 79.6413H56.4775V78.9475V78.9476ZM61.1961 78.9878L66.8568 78.9476L66.8861 79.6414C66.0378 79.654 65.4142 79.802 65.0196 80.0909C64.6249 80.38 64.43 80.8297 64.43 81.446C64.43 82.0497 64.5129 82.6857 64.6882 83.3472L68.8986 98.7166L72.9671 85.3769C72.6308 84.0989 72.3388 83.1611 72.0854 82.5572C71.8369 81.9535 71.5152 81.4077 71.1255 80.9198C70.7791 80.4445 70.4282 80.1101 70.0582 79.9241C69.6929 79.7377 69.2492 79.6414 68.728 79.6414V78.9476H71.7458L79.371 105.298L79.2191 105.807H78.6881L73.2351 86.231L68.1527 102.931L61.1961 78.9878V78.9878ZM73.0184 78.9277L79.5455 78.9477V79.6415H79.0194C78.1618 79.6415 77.4941 79.8342 77.0215 80.2132C76.544 80.5984 76.3052 81.1509 76.3052 81.8828C76.3052 82.3709 76.3732 82.8335 76.5048 83.2702L80.8026 98.7166L85.013 84.5675C85.2223 83.8031 85.3296 83.1161 85.3296 82.4995C85.3296 81.5617 85.0469 80.8553 84.4917 80.393C83.9361 79.9304 83.0785 79.6801 81.9135 79.6414L81.8895 78.9476H89.8954V79.6414C89.3644 79.6927 88.9307 79.802 88.6042 79.969C88.2775 80.1423 87.9172 80.4186 87.5272 80.8104C86.7283 81.6323 86.046 82.9682 85.4854 84.8116L79.9403 103.434L73.0183 78.9277H73.0184Z" fill="white"/>
<path fill-rule="evenodd" clip-rule="evenodd" d="M40.8298 66.1436C39.267 66.1436 38 67.4486 38 69.0583C38 70.6679 39.267 71.973 40.8298 71.973C42.2873 71.973 43.4871 70.838 43.6421 69.3794H89.5993C89.6937 70.5707 90.2024 71.6413 90.9759 72.438C91.8359 73.3237 93.0245 73.8722 94.3371 73.8722C95.6498 73.8722 96.8384 73.3238 97.6984 72.438L97.7241 72.4111C97.9719 72.8137 98.2616 73.1861 98.587 73.5212C99.7161 74.6841 101.277 75.4038 103 75.4038C104.723 75.4038 106.284 74.6841 107.413 73.52C108.477 72.4234 109.159 70.9318 109.234 69.2778H155.167C155.322 70.7366 156.522 71.8713 157.979 71.8713C159.542 71.8713 160.809 70.5665 160.809 68.9569C160.809 67.3471 159.542 66.0422 157.979 66.0422C156.509 66.0422 155.301 67.197 155.163 68.6738H109.234C109.159 67.0199 108.477 65.5283 107.412 64.4304C106.283 63.2677 104.722 62.5479 103 62.5479C101.278 62.5479 99.7173 63.2677 98.587 64.4304C98.2616 64.7657 97.9719 65.1381 97.7241 65.5407L97.6984 65.5137C96.8383 64.6281 95.6498 64.0795 94.3371 64.0795C93.0245 64.0795 91.8358 64.628 90.9759 65.5137C90.1588 66.3555 89.6375 67.503 89.5875 68.7754H43.6463C43.5082 67.2985 42.2999 66.1436 40.8298 66.1436V66.1436ZM98.1269 71.9318C98.7317 71.1104 99.091 70.0863 99.091 68.9758C99.091 67.8653 98.7318 66.8413 98.1269 66.0199C98.3702 65.5947 98.6646 65.2038 99.0012 64.8569C100.024 63.8039 101.438 63.1519 103 63.1519C104.562 63.1519 105.976 63.804 106.999 64.8569C108.022 65.9106 108.655 67.3675 108.655 68.9759C108.655 70.5847 108.022 72.0413 106.999 73.0943C105.976 74.148 104.562 74.8 103 74.8C101.439 74.8 100.025 74.1479 99.0018 73.0943C98.6652 72.7477 98.3702 72.3571 98.1269 71.932V71.9318ZM97.4222 71.8614C96.9982 70.9936 96.7592 70.0135 96.7592 68.9757C96.7592 67.9383 96.9982 66.9581 97.4222 66.09C97.3775 66.0391 97.3311 65.9892 97.2839 65.9405C96.53 65.1642 95.4878 64.6834 94.3371 64.6834C93.1867 64.6834 92.1442 65.1642 91.3905 65.9405C90.6366 66.717 90.1698 67.7908 90.1698 68.9757C90.1698 70.1607 90.6366 71.2344 91.3905 72.0108C92.1442 72.7873 93.1866 73.2681 94.3371 73.2681C95.4877 73.2681 96.53 72.7873 97.2839 72.0108C97.3311 71.9622 97.3775 71.9124 97.4222 71.8614ZM97.8248 66.6259C97.5169 67.3446 97.3457 68.1399 97.3457 68.9758C97.3457 69.8121 97.5169 70.6069 97.8248 71.3257C98.2544 70.6508 98.5045 69.8433 98.5045 68.9758C98.5045 68.1085 98.2547 67.3009 97.8248 66.6259V66.6259Z" fill="white"/>
<path d="M147.482 25.1114C149.757 25.1114 151.842 25.6139 153.735 26.6276C155.623 27.6327 157.266 29.1072 158.66 31.0435C159.839 32.683 160.744 34.5122 161.387 36.5309C162.024 38.549 162.346 40.6091 162.346 42.7183C162.346 45.8901 161.697 48.8065 160.399 51.4762C159.106 54.1457 157.344 56.2628 155.116 57.82C154.844 58.0105 154.568 58.1897 154.289 58.357C158.32 55.3829 160.331 51.176 160.328 43.3034C160.325 32.0173 154.323 26.2008 148.184 25.9768C141.756 25.7422 135.177 31.6286 135.18 43.3034C135.182 51.2467 137.024 55.1724 140.931 58.1875C139.619 57.3719 138.432 56.339 137.371 55.0763C136.013 53.4616 134.953 51.5749 134.191 49.4162C133.429 47.266 133.048 45.0084 133.048 42.6604C133.048 39.5377 133.703 36.6295 135.019 33.9186C136.329 31.2163 138.092 29.0742 140.301 27.4924C142.504 25.9023 144.898 25.1113 147.483 25.1113L147.482 25.1114ZM146.666 26.1117C141.606 27.1484 137.053 35.42 137.053 43.503C137.053 52.1453 140.728 57.5778 144.728 59.7965C145.721 60.0381 146.746 60.1597 147.804 60.1597C148.773 60.1597 149.713 60.055 150.625 59.846C154.672 57.6763 158.649 51.2404 158.649 42.9705C158.649 34.701 153.899 27.3184 149.076 26.164H149.076C149.308 26.2284 149.543 26.3117 149.781 26.4129C150.424 26.6851 150.984 27.0474 151.472 27.5006C152.46 28.349 153.306 29.5027 154.003 30.9607C154.7 32.4109 155.236 34.1245 155.605 36.0854C155.98 38.0462 156.164 40.1554 156.164 42.4047C156.164 45.8817 155.825 48.8806 155.146 51.4017C154.461 53.931 153.484 55.8756 152.216 57.2347C150.942 58.5943 149.447 59.2699 147.726 59.2699C146.458 59.2699 145.303 58.8824 144.273 58.1082C143.237 57.342 142.349 56.2217 141.605 54.7465C140.86 53.2719 140.289 51.5252 139.896 49.4903C139.497 47.4551 139.3 45.1977 139.3 42.7179C139.3 40.7404 139.425 38.8949 139.675 37.1813C139.925 35.4676 140.295 33.9185 140.789 32.5263C141.283 31.1337 141.879 29.931 142.581 28.9177C143.218 27.9867 144.005 27.27 144.939 26.759C145.442 26.4903 145.96 26.2925 146.496 26.1662C146.544 26.1466 146.601 26.1284 146.666 26.1114L146.666 26.1117Z" fill="white"/>
<path d="M88.5918 24.0001C90.8666 24.0001 92.9509 24.5026 94.8444 25.5161C96.7321 26.5212 98.3757 27.9958 99.7694 29.932C100.948 31.5714 101.853 33.4007 102.497 35.4193C103.134 37.4375 103.455 39.4975 103.455 41.6067C103.455 44.7787 102.806 47.695 101.508 50.3646C100.216 53.0341 98.4532 55.1514 96.2258 56.7085C95.953 56.899 95.6775 57.0782 95.3984 57.2455C99.4294 54.2713 101.44 50.0646 101.438 42.192C101.435 30.9059 95.4321 25.0894 89.2935 24.8652C82.8653 24.6306 76.2866 30.5169 76.2897 42.192C76.2913 50.1351 78.1333 54.0607 82.0406 57.0761C80.7279 56.2604 79.541 55.2275 78.4805 53.9648C77.1226 52.35 76.0628 50.4634 75.3005 48.3047C74.5384 46.1544 74.1572 43.897 74.1572 41.549C74.1572 38.4262 74.8123 35.5179 76.1282 32.8073C77.4382 30.1049 79.2012 27.9629 81.4105 26.3809C83.6137 24.7909 86.0074 24 88.592 24L88.5918 24.0001ZM87.7752 25.0003C82.7154 26.0371 78.1625 34.3085 78.1625 42.3916C78.1625 51.034 81.8373 56.4664 85.8374 58.6851C86.8302 58.9266 87.8554 59.0483 88.9134 59.0483C89.8825 59.0483 90.8228 58.9435 91.7349 58.7345C95.7814 56.5651 99.7584 50.1291 99.7584 41.859C99.7584 33.5897 95.0085 26.207 90.185 25.0527H90.1852C90.4171 25.1171 90.6526 25.2004 90.8903 25.3016C91.5334 25.5736 92.0928 25.9361 92.5812 26.3891C93.5695 27.2378 94.4152 28.3914 95.1121 29.8495C95.8088 31.2997 96.3448 33.0133 96.7139 34.9741C97.0889 36.935 97.2736 39.0442 97.2736 41.2934C97.2736 44.7704 96.9345 47.7692 96.2556 50.2904C95.5707 52.8196 94.5938 54.7642 93.3256 56.1236C92.0513 57.4832 90.5566 58.1588 88.8358 58.1588C87.5669 58.1588 86.4119 57.7713 85.3818 56.9969C84.3459 56.2306 83.4584 55.1103 82.7139 53.6353C81.9694 52.1606 81.398 50.4138 81.0048 48.3789C80.6058 46.3439 80.4094 44.0864 80.4094 41.6066C80.4094 39.6291 80.5344 37.7836 80.7843 36.07C81.0347 34.3562 81.4039 32.8073 81.8982 31.4151C82.3922 30.0225 82.9878 28.8196 83.6905 27.8064C84.3277 26.8753 85.1138 26.1588 86.0486 25.6478C86.5514 25.3789 87.0696 25.1812 87.6049 25.0549C87.6531 25.0353 87.7098 25.0172 87.775 25.0002L87.7752 25.0003Z" fill="white"/>
<path d="M35.8379 125.811L35.0449 126.419C34.6074 125.849 34.0811 125.419 33.4658 125.127C32.8551 124.831 32.1829 124.683 31.4492 124.683C30.6471 124.683 29.9043 124.876 29.2207 125.264C28.5371 125.646 28.0062 126.164 27.6279 126.815C27.2542 127.463 27.0674 128.192 27.0674 129.003C27.0674 130.229 27.4867 131.252 28.3252 132.072C29.1683 132.893 30.2301 133.303 31.5107 133.303C32.9189 133.303 34.097 132.751 35.0449 131.648L35.8379 132.25C35.3366 132.888 34.71 133.382 33.958 133.733C33.2106 134.08 32.3743 134.253 31.4492 134.253C29.6901 134.253 28.3024 133.667 27.2861 132.496C26.4339 131.507 26.0078 130.313 26.0078 128.914C26.0078 127.442 26.5228 126.205 27.5527 125.202C28.5872 124.195 29.8815 123.691 31.4355 123.691C32.3743 123.691 33.222 123.878 33.9785 124.252C34.735 124.621 35.3548 125.141 35.8379 125.811ZM39.8643 134H37.7041V126.562H39.8301C40.6413 126.562 41.2246 126.749 41.5801 127.123C41.9401 127.497 42.1201 127.934 42.1201 128.436C42.1201 129.192 41.7874 129.705 41.1221 129.974C42.0882 130.315 42.5713 130.974 42.5713 131.949C42.5713 133.316 41.6689 134 39.8643 134ZM38.668 127.39V129.714H39.29C39.8551 129.714 40.2243 129.691 40.3975 129.646C40.5706 129.6 40.7324 129.488 40.8828 129.311C41.0378 129.128 41.1152 128.889 41.1152 128.593C41.1152 128.283 41.0355 128.023 40.876 127.813C40.7165 127.604 40.5479 127.481 40.3701 127.444C40.1969 127.408 39.8369 127.39 39.29 127.39H38.668ZM38.668 130.589V133.193H39.6934C40.1764 133.193 40.5205 133.164 40.7256 133.104C40.9352 133.041 41.113 132.906 41.2588 132.701C41.4092 132.496 41.4844 132.236 41.4844 131.922C41.4844 131.516 41.3568 131.193 41.1016 130.951C40.8464 130.71 40.5091 130.589 40.0898 130.589H38.668ZM51.6631 126.562V134H50.7197V132.722C50.3187 133.209 49.8675 133.576 49.3662 133.822C48.8695 134.068 48.3249 134.191 47.7324 134.191C46.6797 134.191 45.7796 133.811 45.0322 133.05C44.2894 132.284 43.918 131.354 43.918 130.261C43.918 129.19 44.2939 128.274 45.0459 127.513C45.7979 126.752 46.7025 126.371 47.7598 126.371C48.3704 126.371 48.9219 126.501 49.4141 126.761C49.9108 127.021 50.346 127.41 50.7197 127.93V126.562H51.6631ZM47.835 127.294C47.3018 127.294 46.8096 127.426 46.3584 127.69C45.9072 127.95 45.5472 128.317 45.2783 128.791C45.014 129.265 44.8818 129.766 44.8818 130.295C44.8818 130.819 45.0163 131.32 45.2852 131.799C45.554 132.277 45.9141 132.651 46.3652 132.92C46.821 133.184 47.3086 133.316 47.8281 133.316C48.3522 133.316 48.849 133.184 49.3184 132.92C49.7878 132.656 50.1478 132.298 50.3984 131.847C50.6536 131.396 50.7812 130.887 50.7812 130.322C50.7812 129.461 50.4964 128.741 49.9268 128.162C49.3617 127.583 48.6644 127.294 47.835 127.294ZM53.8848 133.187L56.7559 126.562H57.2549L60.1055 133.187H61.001V134.95H60.0781V134H53.9258V134.991H52.9824V133.187H53.8848ZM56.9883 128.039L54.8145 133.187H59.0732L56.9883 128.039ZM68.5615 131.532L69.3682 131.956C69.1038 132.476 68.7985 132.895 68.4521 133.214C68.1058 133.533 67.7161 133.777 67.2832 133.945C66.8503 134.109 66.3604 134.191 65.8135 134.191C64.6012 134.191 63.6533 133.795 62.9697 133.002C62.2861 132.204 61.9443 131.304 61.9443 130.302C61.9443 129.358 62.2337 128.518 62.8125 127.779C63.5462 126.84 64.5283 126.371 65.7588 126.371C67.0257 126.371 68.0374 126.852 68.7939 127.813C69.3317 128.493 69.6051 129.34 69.6143 130.356H62.9287C62.9469 131.222 63.2227 131.933 63.7559 132.489C64.2891 133.041 64.9476 133.316 65.7314 133.316C66.1097 133.316 66.4766 133.25 66.832 133.118C67.1921 132.986 67.4974 132.811 67.748 132.592C67.9987 132.373 68.2699 132.02 68.5615 131.532ZM68.5615 129.529C68.4339 129.019 68.2471 128.611 68.001 128.306C67.7594 128 67.4382 127.754 67.0371 127.567C66.6361 127.381 66.2145 127.287 65.7725 127.287C65.0433 127.287 64.4167 127.522 63.8926 127.991C63.5098 128.333 63.2204 128.846 63.0244 129.529H68.5615ZM78.5215 123.534V124.45C78.0658 124.528 77.2842 124.582 76.1768 124.614C75.3747 124.642 74.7549 124.696 74.3174 124.778C73.8844 124.856 73.5062 125.008 73.1826 125.236C72.859 125.46 72.5856 125.801 72.3623 126.262C72.1436 126.717 72.0068 127.228 71.9521 127.793L71.8564 128.839C72.1162 127.987 72.5423 127.362 73.1348 126.966C73.7318 126.569 74.3926 126.371 75.1172 126.371C76.2201 126.371 77.1406 126.758 77.8789 127.533C78.6217 128.308 78.9932 129.231 78.9932 130.302C78.9932 131.364 78.624 132.277 77.8857 133.043C77.1475 133.809 76.2246 134.191 75.1172 134.191C73.9824 134.191 73.0208 133.768 72.2324 132.92C71.444 132.072 71.0498 130.737 71.0498 128.914C71.0498 127.643 71.1934 126.681 71.4805 126.029C71.7721 125.373 72.1048 124.901 72.4785 124.614C72.8522 124.327 73.3353 124.102 73.9277 123.938C74.5202 123.773 75.6299 123.671 77.2568 123.63C77.7581 123.616 78.1797 123.584 78.5215 123.534ZM78.0225 130.322C78.0225 129.497 77.7354 128.789 77.1611 128.196C76.5869 127.604 75.9056 127.308 75.1172 127.308C74.3333 127.308 73.6543 127.604 73.0801 128.196C72.5059 128.789 72.2188 129.497 72.2188 130.322C72.2188 131.143 72.4945 131.842 73.0459 132.421C73.6019 132.995 74.2923 133.282 75.1172 133.282C75.9466 133.282 76.637 132.995 77.1885 132.421C77.7445 131.842 78.0225 131.143 78.0225 130.322ZM86.0547 130.418H81.7344V134H80.7705V126.562H81.7344V129.516H86.0547V126.562H87.0117V134H86.0547V130.418ZM92.6719 126.371C93.8158 126.371 94.7637 126.786 95.5156 127.615C96.1992 128.372 96.541 129.267 96.541 130.302C96.541 131.341 96.1787 132.25 95.4541 133.029C94.734 133.804 93.8066 134.191 92.6719 134.191C91.5326 134.191 90.6006 133.804 89.876 133.029C89.1559 132.25 88.7959 131.341 88.7959 130.302C88.7959 129.272 89.1377 128.379 89.8213 127.622C90.5732 126.788 91.5234 126.371 92.6719 126.371ZM92.6719 127.308C91.8789 127.308 91.1976 127.602 90.6279 128.189C90.0583 128.777 89.7734 129.488 89.7734 130.322C89.7734 130.86 89.9033 131.361 90.1631 131.826C90.4229 132.291 90.7738 132.651 91.2158 132.906C91.6579 133.157 92.1432 133.282 92.6719 133.282C93.2005 133.282 93.6859 133.157 94.1279 132.906C94.57 132.651 94.9209 132.291 95.1807 131.826C95.4404 131.361 95.5703 130.86 95.5703 130.322C95.5703 129.488 95.2832 128.777 94.709 128.189C94.1393 127.602 93.4603 127.308 92.6719 127.308ZM104.587 131.532L105.394 131.956C105.129 132.476 104.824 132.895 104.478 133.214C104.131 133.533 103.742 133.777 103.309 133.945C102.876 134.109 102.386 134.191 101.839 134.191C100.627 134.191 99.6787 133.795 98.9951 133.002C98.3115 132.204 97.9697 131.304 97.9697 130.302C97.9697 129.358 98.2591 128.518 98.8379 127.779C99.5716 126.84 100.554 126.371 101.784 126.371C103.051 126.371 104.063 126.852 104.819 127.813C105.357 128.493 105.631 129.34 105.64 130.356H98.9541C98.9723 131.222 99.248 131.933 99.7812 132.489C100.314 133.041 100.973 133.316 101.757 133.316C102.135 133.316 102.502 133.25 102.857 133.118C103.217 132.986 103.523 132.811 103.773 132.592C104.024 132.373 104.295 132.02 104.587 131.532ZM104.587 129.529C104.459 129.019 104.272 128.611 104.026 128.306C103.785 128 103.464 127.754 103.062 127.567C102.661 127.381 102.24 127.287 101.798 127.287C101.069 127.287 100.442 127.522 99.918 127.991C99.5352 128.333 99.2458 128.846 99.0498 129.529H104.587ZM118.724 126.562V134H117.78V132.722C117.379 133.209 116.928 133.576 116.427 133.822C115.93 134.068 115.385 134.191 114.793 134.191C113.74 134.191 112.84 133.811 112.093 133.05C111.35 132.284 110.979 131.354 110.979 130.261C110.979 129.19 111.354 128.274 112.106 127.513C112.858 126.752 113.763 126.371 114.82 126.371C115.431 126.371 115.982 126.501 116.475 126.761C116.971 127.021 117.407 127.41 117.78 127.93V126.562H118.724ZM114.896 127.294C114.362 127.294 113.87 127.426 113.419 127.69C112.968 127.95 112.608 128.317 112.339 128.791C112.075 129.265 111.942 129.766 111.942 130.295C111.942 130.819 112.077 131.32 112.346 131.799C112.615 132.277 112.975 132.651 113.426 132.92C113.882 133.184 114.369 133.316 114.889 133.316C115.413 133.316 115.91 133.184 116.379 132.92C116.848 132.656 117.208 132.298 117.459 131.847C117.714 131.396 117.842 130.887 117.842 130.322C117.842 129.461 117.557 128.741 116.987 128.162C116.422 127.583 115.725 127.294 114.896 127.294ZM121.834 127.403V134H120.884V126.562H124.644V127.403H121.834ZM132.204 131.532L133.011 131.956C132.746 132.476 132.441 132.895 132.095 133.214C131.748 133.533 131.359 133.777 130.926 133.945C130.493 134.109 130.003 134.191 129.456 134.191C128.244 134.191 127.296 133.795 126.612 133.002C125.929 132.204 125.587 131.304 125.587 130.302C125.587 129.358 125.876 128.518 126.455 127.779C127.189 126.84 128.171 126.371 129.401 126.371C130.668 126.371 131.68 126.852 132.437 127.813C132.974 128.493 133.248 129.34 133.257 130.356H126.571C126.59 131.222 126.865 131.933 127.398 132.489C127.932 133.041 128.59 133.316 129.374 133.316C129.752 133.316 130.119 133.25 130.475 133.118C130.835 132.986 131.14 132.811 131.391 132.592C131.641 132.373 131.912 132.02 132.204 131.532ZM132.204 129.529C132.076 129.019 131.89 128.611 131.644 128.306C131.402 128 131.081 127.754 130.68 127.567C130.279 127.381 129.857 127.287 129.415 127.287C128.686 127.287 128.059 127.522 127.535 127.991C127.152 128.333 126.863 128.846 126.667 129.529H132.204ZM140.332 130.418H136.012V134H135.048V126.562H136.012V129.516H140.332V126.562H141.289V134H140.332V130.418ZM142.595 126.562H147.489V127.39H145.521V134H144.557V127.39H142.595V126.562ZM156.007 128.107L155.248 128.579C154.592 127.709 153.696 127.273 152.562 127.273C151.655 127.273 150.9 127.565 150.299 128.148C149.702 128.732 149.403 129.44 149.403 130.274C149.403 130.817 149.54 131.327 149.813 131.806C150.091 132.284 150.47 132.656 150.948 132.92C151.431 133.184 151.971 133.316 152.568 133.316C153.662 133.316 154.555 132.881 155.248 132.011L156.007 132.51C155.651 133.043 155.173 133.458 154.571 133.754C153.974 134.046 153.293 134.191 152.527 134.191C151.352 134.191 150.376 133.818 149.602 133.07C148.827 132.323 148.439 131.414 148.439 130.343C148.439 129.623 148.619 128.955 148.979 128.34C149.344 127.72 149.843 127.237 150.477 126.891C151.11 126.544 151.819 126.371 152.603 126.371C153.095 126.371 153.569 126.446 154.024 126.597C154.485 126.747 154.874 126.943 155.193 127.185C155.512 127.426 155.784 127.734 156.007 128.107ZM157.019 126.562H161.913V127.39H159.944V134H158.98V127.39H157.019V126.562ZM165.372 134H163.212V126.562H165.338C166.149 126.562 166.732 126.749 167.088 127.123C167.448 127.497 167.628 127.934 167.628 128.436C167.628 129.192 167.295 129.705 166.63 129.974C167.596 130.315 168.079 130.974 168.079 131.949C168.079 133.316 167.177 134 165.372 134ZM164.176 127.39V129.714H164.798C165.363 129.714 165.732 129.691 165.905 129.646C166.078 129.6 166.24 129.488 166.391 129.311C166.546 129.128 166.623 128.889 166.623 128.593C166.623 128.283 166.543 128.023 166.384 127.813C166.224 127.604 166.056 127.481 165.878 127.444C165.705 127.408 165.345 127.39 164.798 127.39H164.176ZM164.176 130.589V133.193H165.201C165.684 133.193 166.028 133.164 166.233 133.104C166.443 133.041 166.621 132.906 166.767 132.701C166.917 132.496 166.992 132.236 166.992 131.922C166.992 131.516 166.865 131.193 166.609 130.951C166.354 130.71 166.017 130.589 165.598 130.589H164.176ZM173.281 126.371C174.425 126.371 175.373 126.786 176.125 127.615C176.809 128.372 177.15 129.267 177.15 130.302C177.15 131.341 176.788 132.25 176.063 133.029C175.343 133.804 174.416 134.191 173.281 134.191C172.142 134.191 171.21 133.804 170.485 133.029C169.765 132.25 169.405 131.341 169.405 130.302C169.405 129.272 169.747 128.379 170.431 127.622C171.183 126.788 172.133 126.371 173.281 126.371ZM173.281 127.308C172.488 127.308 171.807 127.602 171.237 128.189C170.668 128.777 170.383 129.488 170.383 130.322C170.383 130.86 170.513 131.361 170.772 131.826C171.032 132.291 171.383 132.651 171.825 132.906C172.267 133.157 172.753 133.282 173.281 133.282C173.81 133.282 174.295 133.157 174.737 132.906C175.179 132.651 175.53 132.291 175.79 131.826C176.05 131.361 176.18 130.86 176.18 130.322C176.18 129.488 175.893 128.777 175.318 128.189C174.749 127.602 174.07 127.308 173.281 127.308ZM74.6182 152H72.458V144.562H74.584C75.3952 144.562 75.9785 144.749 76.334 145.123C76.694 145.497 76.874 145.934 76.874 146.436C76.874 147.192 76.5413 147.705 75.876 147.974C76.8421 148.315 77.3252 148.974 77.3252 149.949C77.3252 151.316 76.4229 152 74.6182 152ZM73.4219 145.39V147.714H74.0439C74.609 147.714 74.9782 147.691 75.1514 147.646C75.3245 147.6 75.4863 147.488 75.6367 147.311C75.7917 147.128 75.8691 146.889 75.8691 146.593C75.8691 146.283 75.7894 146.023 75.6299 145.813C75.4704 145.604 75.3018 145.481 75.124 145.444C74.9508 145.408 74.5908 145.39 74.0439 145.39H73.4219ZM73.4219 148.589V151.193H74.4473C74.9303 151.193 75.2744 151.164 75.4795 151.104C75.6891 151.041 75.8669 150.906 76.0127 150.701C76.1631 150.496 76.2383 150.236 76.2383 149.922C76.2383 149.516 76.1107 149.193 75.8555 148.951C75.6003 148.71 75.263 148.589 74.8438 148.589H73.4219ZM82.5889 152L84.0176 141.944H84.1816L88.2695 150.195L92.3164 141.944H92.4805L93.9229 152H92.9316L91.9473 144.809L88.3926 152H88.1396L84.5371 144.754L83.5596 152H82.5889ZM99.2754 144.371C100.419 144.371 101.367 144.786 102.119 145.615C102.803 146.372 103.145 147.267 103.145 148.302C103.145 149.341 102.782 150.25 102.058 151.029C101.338 151.804 100.41 152.191 99.2754 152.191C98.1361 152.191 97.2041 151.804 96.4795 151.029C95.7594 150.25 95.3994 149.341 95.3994 148.302C95.3994 147.272 95.7412 146.379 96.4248 145.622C97.1768 144.788 98.127 144.371 99.2754 144.371ZM99.2754 145.308C98.4824 145.308 97.8011 145.602 97.2314 146.189C96.6618 146.777 96.377 147.488 96.377 148.322C96.377 148.86 96.5068 149.361 96.7666 149.826C97.0264 150.291 97.3773 150.651 97.8193 150.906C98.2614 151.157 98.7467 151.282 99.2754 151.282C99.804 151.282 100.289 151.157 100.731 150.906C101.174 150.651 101.524 150.291 101.784 149.826C102.044 149.361 102.174 148.86 102.174 148.322C102.174 147.488 101.887 146.777 101.312 146.189C100.743 145.602 100.064 145.308 99.2754 145.308ZM112.147 146.107L111.389 146.579C110.732 145.709 109.837 145.273 108.702 145.273C107.795 145.273 107.041 145.565 106.439 146.148C105.842 146.732 105.544 147.44 105.544 148.274C105.544 148.817 105.681 149.327 105.954 149.806C106.232 150.284 106.61 150.656 107.089 150.92C107.572 151.184 108.112 151.316 108.709 151.316C109.803 151.316 110.696 150.881 111.389 150.011L112.147 150.51C111.792 151.043 111.313 151.458 110.712 151.754C110.115 152.046 109.434 152.191 108.668 152.191C107.492 152.191 106.517 151.818 105.742 151.07C104.967 150.323 104.58 149.414 104.58 148.343C104.58 147.623 104.76 146.955 105.12 146.34C105.485 145.72 105.984 145.237 106.617 144.891C107.251 144.544 107.959 144.371 108.743 144.371C109.235 144.371 109.709 144.446 110.165 144.597C110.625 144.747 111.015 144.943 111.334 145.185C111.653 145.426 111.924 145.734 112.147 146.107ZM113.993 144.562H114.957V147.693L118.396 144.562H119.729L115.962 147.967L120.029 152H118.676L115.258 148.562L114.957 148.828V152H113.993V144.562ZM123.181 152H121.021V144.562H123.146C123.958 144.562 124.541 144.749 124.896 145.123C125.257 145.497 125.437 145.934 125.437 146.436C125.437 147.192 125.104 147.705 124.438 147.974C125.405 148.315 125.888 148.974 125.888 149.949C125.888 151.316 124.985 152 123.181 152ZM121.984 145.39V147.714H122.606C123.172 147.714 123.541 147.691 123.714 147.646C123.887 147.6 124.049 147.488 124.199 147.311C124.354 147.128 124.432 146.889 124.432 146.593C124.432 146.283 124.352 146.023 124.192 145.813C124.033 145.604 123.864 145.481 123.687 145.444C123.513 145.408 123.153 145.39 122.606 145.39H121.984ZM121.984 148.589V151.193H123.01C123.493 151.193 123.837 151.164 124.042 151.104C124.252 151.041 124.429 150.906 124.575 150.701C124.726 150.496 124.801 150.236 124.801 149.922C124.801 149.516 124.673 149.193 124.418 148.951C124.163 148.71 123.826 148.589 123.406 148.589H121.984ZM133.831 149.532L134.638 149.956C134.373 150.476 134.068 150.895 133.722 151.214C133.375 151.533 132.986 151.777 132.553 151.945C132.12 152.109 131.63 152.191 131.083 152.191C129.871 152.191 128.923 151.795 128.239 151.002C127.556 150.204 127.214 149.304 127.214 148.302C127.214 147.358 127.503 146.518 128.082 145.779C128.816 144.84 129.798 144.371 131.028 144.371C132.295 144.371 133.307 144.852 134.063 145.813C134.601 146.493 134.875 147.34 134.884 148.356H128.198C128.216 149.222 128.492 149.933 129.025 150.489C129.559 151.041 130.217 151.316 131.001 151.316C131.379 151.316 131.746 151.25 132.102 151.118C132.462 150.986 132.767 150.811 133.018 150.592C133.268 150.373 133.539 150.02 133.831 149.532ZM133.831 147.529C133.703 147.019 133.517 146.611 133.271 146.306C133.029 146 132.708 145.754 132.307 145.567C131.906 145.381 131.484 145.287 131.042 145.287C130.313 145.287 129.686 145.522 129.162 145.991C128.779 146.333 128.49 146.846 128.294 147.529H133.831Z" fill="#E1E1E1"/>
<defs>
<filter id="filter0_bd_538_1255" x="-6.68006" y="-10.6801" width="213.36" height="207.4" filterUnits="userSpaceOnUse" color-interpolation-filters="sRGB">
<feFlood flood-opacity="0" result="BackgroundImageFix"/>
<feGaussianBlur in="BackgroundImageFix" stdDeviation="5.34003"/>
<feComposite in2="SourceAlpha" operator="in" result="effect1_backgroundBlur_538_1255"/>
<feColorMatrix in="SourceAlpha" type="matrix" values="0 0 0 0 0 0 0 0 0 0 0 0 0 0 0 0 0 0 127 0" result="hardAlpha"/>
<feOffset dy="3.05145"/>
<feGaussianBlur stdDeviation="1.52572"/>
<feComposite in2="hardAlpha" operator="out"/>
<feColorMatrix type="matrix" values="0 0 0 0 0 0 0 0 0 0 0 0 0 0 0 0 0 0 0.25 0"/>
<feBlend mode="normal" in2="effect1_backgroundBlur_538_1255" result="effect2_dropShadow_538_1255"/>
<feBlend mode="normal" in="SourceGraphic" in2="effect2_dropShadow_538_1255" result="shape"/>
</filter>
</defs>
</svg>
