<svg width="200" height="193" viewBox="0 0 200 193" fill="none" xmlns="http://www.w3.org/2000/svg">
<g filter="url(#filter0_bd_504_477)">
<path d="M4 0H196V157.385C196 161.25 193.11 164.504 189.272 164.961L12.5297 185.985C7.99135 186.525 4 182.981 4 178.41V0Z" fill="white" fill-opacity="0.4" shape-rendering="crispEdges"/>
<path d="M4.38143 0.381431H195.619V157.385C195.619 161.057 192.873 164.148 189.227 164.582L12.4847 185.607C8.17321 186.119 4.38143 182.752 4.38143 178.41V0.381431Z" stroke="white" stroke-width="0.762862" shape-rendering="crispEdges"/>
</g>
<path fill-rule="evenodd" clip-rule="evenodd" d="M115.303 78.9473H119.156C119.834 79.0666 120.428 79.4254 120.843 79.9312V105.229H115.303V104.497H116.034C117.262 104.497 118.173 104.105 118.768 103.321C119.362 102.538 119.659 101.337 119.659 99.7183V84.4195C119.659 82.7882 119.362 81.5871 118.772 80.8101C118.183 80.0331 117.271 79.6411 116.034 79.6411H115.303V78.9473V78.9473ZM130.768 79.8493C135.838 80.0465 139.901 85.4472 139.901 92.0815C139.901 98.7156 135.838 104.116 130.768 104.314V104.308C134.499 104.045 137.479 98.6721 137.479 92.0815C137.479 85.4907 134.499 80.1178 130.768 79.8543V79.8493ZM122.173 78.9473H128.542C130.696 78.9473 132.572 79.3007 134.175 80.0073C135.779 80.7201 137.128 81.8058 138.225 83.2699C139.214 84.5416 139.979 85.9673 140.515 87.5604C141.056 89.1532 141.324 90.7909 141.324 92.4736C141.324 94.3168 141.031 96.0252 140.452 97.5926C139.872 99.1595 139.053 100.515 137.991 101.651C136.929 102.795 135.667 103.675 134.214 104.298C132.757 104.921 131.178 105.229 129.483 105.229H122.173V78.9474L122.173 78.9473ZM123.869 79.6411V104.497H127.729C128.82 104.497 129.751 104.413 130.511 104.253C131.276 104.092 131.939 103.822 132.514 103.45C133.084 103.084 133.581 102.596 134.01 101.992C135.593 99.8725 136.383 96.6097 136.383 92.2103C136.383 90.7653 136.285 89.4034 136.091 88.1191C135.896 86.8346 135.613 85.6976 135.238 84.7213C134.868 83.7452 134.404 82.8846 133.839 82.1457C133.372 81.542 132.845 81.0541 132.26 80.6881C131.676 80.3154 130.998 80.0457 130.233 79.8853C129.468 79.7244 128.547 79.641 127.47 79.641H123.869L123.869 79.6411Z" fill="white"/>
<path d="M40.3535 24.6201H45.3271L67.758 56.719V58.6799H67.1864L46.1413 28.7726V48.8015C46.1413 50.7458 46.3082 52.3029 46.648 53.4728C46.9871 54.6347 47.5353 55.5491 48.2914 56.208C48.9107 56.7272 49.6551 57.0567 50.5424 57.1968C51.0308 57.3122 51.7272 57.3946 52.6385 57.4441V58.3338H39.9189V57.4441C41.2173 57.345 42.2828 57.0237 43.0985 56.4883C43.9206 55.9444 44.5219 55.1453 44.9152 54.0826C45.3023 53.028 45.4987 51.7016 45.4987 50.1279V31.0629C45.4987 29.8848 45.308 28.8878 44.9328 28.0722C44.552 27.2483 44.0039 26.6142 43.2831 26.1775C42.5628 25.7323 41.6934 25.5101 40.6692 25.5101H40.3535V24.6201V24.6201ZM47.4159 24.6201H50.1432L67.079 48.8921V34.367C67.079 32.5958 66.8587 31.0467 66.4239 29.7203C65.9894 28.3936 65.364 27.3803 64.5365 26.6963C64.0958 26.3093 63.6489 26.0292 63.2025 25.8726C62.7558 25.708 62.1303 25.5926 61.3265 25.5102V24.6202H73.4033V25.4607H64.281L64.2825 25.4621C66.5763 25.7239 67.8836 27.896 67.881 32.1088C67.7988 32.8645 67.7585 33.6832 67.7578 34.5647L67.7385 53.3658L47.4155 24.6202L47.4159 24.6201Z" fill="white"/>
<path d="M103.299 24.6205H107.585L119.039 57.3806L118.526 58.977L117.918 59.0266L108.48 30.5527C107.367 27.1912 105.919 25.5106 104.156 25.5106H103.299V24.6207L103.299 24.6205ZM109.367 24.6201L117.549 24.6205V25.5105H115.804C115.018 25.5105 114.393 25.7328 113.941 26.1861C113.488 26.6391 113.261 27.2736 113.261 28.0893C113.261 28.8637 113.429 29.778 113.768 30.841L120.414 51.0181L125.993 33.6178C126.434 32.2829 126.66 31.1296 126.66 30.1655C126.66 28.7811 126.344 27.6855 125.726 26.8617C125.1 26.0378 124.236 25.593 123.135 25.5105V24.6205H132.955V25.5105C132.026 25.6587 131.192 26.0296 130.459 26.6309C129.727 27.2326 129.06 28.1056 128.452 29.2344C127.851 30.3714 127.238 31.8791 126.625 33.766L119.721 55.1869L109.367 24.6201V24.6201Z" fill="white"/>
<path d="M91.251 78.9474H94.2684C95.3189 79.2747 96.1009 80.1953 96.2062 81.3084V105.229H91.275L91.251 104.536H91.7918C94.2086 104.536 95.4172 102.93 95.4172 99.7183V84.4195C95.4172 82.7882 95.1199 81.5871 94.5303 80.8101C93.9406 80.0331 93.0294 79.6411 91.7918 79.6411H91.251V78.9473V78.9474ZM97.4848 78.9474H107.582L107.613 78.9795C109.687 79.1325 111.359 80.8718 111.597 83.0828L111.598 83.0842V78.9474H112.462V89.1147H112.034C111.644 87.3355 111.293 86.0062 110.986 85.1197C110.674 84.2397 110.274 83.3984 109.777 82.615C109.178 81.6709 108.525 81.0027 107.823 80.5982C106.649 79.9625 105.226 79.6413 103.555 79.6413H99.6271V92.1268H100.685C102.254 92.1268 103.501 91.2341 104.422 89.4551C104.9 88.5433 105.25 87.4514 105.479 86.186C105.596 85.6465 105.698 84.8501 105.796 83.7968H106.293V101.035H105.796C105.679 100.11 105.542 99.2369 105.387 98.4149C105.231 97.5929 105.055 96.9249 104.861 96.4112C104.666 95.897 104.412 95.3834 104.11 94.8694C103.253 93.4758 102.034 92.7823 100.455 92.7823H99.6271V104.536H102.911C103.881 104.536 104.753 104.446 105.528 104.266C106.307 104.08 107.005 103.797 107.623 103.418C108.242 103.033 108.822 102.538 109.363 101.922C110.294 100.881 111.019 99.5839 111.532 98.0295C111.828 97.1369 112.136 95.9358 112.462 94.4201H112.988V105.229H111.99V101.095L111.989 101.096C111.751 103.307 110.08 105.047 108.005 105.199L107.976 105.229H97.4846V78.9477L97.4848 78.9474Z" fill="white"/>
<path d="M56.4775 78.9476H59.9782L67.5306 105.047L67.3 105.807H66.7397L60.975 85.0044C60.4683 83.1097 59.9031 81.7416 59.2745 80.9003C58.6459 80.0587 57.8808 79.6413 56.9793 79.6413H56.4775V78.9475V78.9476ZM61.1961 78.9878L66.8568 78.9476L66.8861 79.6414C66.0378 79.654 65.4142 79.802 65.0196 80.0909C64.6249 80.38 64.43 80.8297 64.43 81.446C64.43 82.0497 64.5129 82.6857 64.6882 83.3472L68.8986 98.7166L72.9671 85.3769C72.6308 84.0989 72.3388 83.1611 72.0854 82.5572C71.8369 81.9535 71.5152 81.4077 71.1255 80.9198C70.7791 80.4445 70.4282 80.1101 70.0582 79.9241C69.6929 79.7377 69.2492 79.6414 68.728 79.6414V78.9476H71.7458L79.371 105.298L79.2191 105.807H78.6881L73.2351 86.231L68.1527 102.931L61.1961 78.9878V78.9878ZM73.0184 78.9277L79.5455 78.9477V79.6415H79.0194C78.1618 79.6415 77.4941 79.8342 77.0215 80.2132C76.544 80.5984 76.3052 81.1509 76.3052 81.8828C76.3052 82.3709 76.3732 82.8335 76.5048 83.2702L80.8026 98.7166L85.013 84.5675C85.2223 83.8031 85.3296 83.1161 85.3296 82.4995C85.3296 81.5617 85.0469 80.8553 84.4917 80.393C83.9361 79.9304 83.0785 79.6801 81.9135 79.6414L81.8895 78.9476H89.8954V79.6414C89.3644 79.6927 88.9307 79.802 88.6042 79.969C88.2775 80.1423 87.9172 80.4186 87.5272 80.8104C86.7283 81.6323 86.046 82.9682 85.4854 84.8116L79.9403 103.434L73.0183 78.9277H73.0184Z" fill="white"/>
<path fill-rule="evenodd" clip-rule="evenodd" d="M40.8298 66.1436C39.267 66.1436 38 67.4486 38 69.0583C38 70.6679 39.267 71.973 40.8298 71.973C42.2873 71.973 43.4871 70.838 43.6421 69.3794H89.5993C89.6937 70.5707 90.2024 71.6413 90.9759 72.438C91.8359 73.3237 93.0245 73.8722 94.3371 73.8722C95.6498 73.8722 96.8384 73.3238 97.6984 72.438L97.7241 72.4111C97.9719 72.8137 98.2616 73.1861 98.587 73.5212C99.7161 74.6841 101.277 75.4038 103 75.4038C104.723 75.4038 106.284 74.6841 107.413 73.52C108.477 72.4234 109.159 70.9318 109.234 69.2778H155.167C155.322 70.7366 156.522 71.8713 157.979 71.8713C159.542 71.8713 160.809 70.5665 160.809 68.9569C160.809 67.3471 159.542 66.0422 157.979 66.0422C156.509 66.0422 155.301 67.197 155.163 68.6738H109.234C109.159 67.0199 108.477 65.5283 107.412 64.4304C106.283 63.2677 104.722 62.5479 103 62.5479C101.278 62.5479 99.7173 63.2677 98.587 64.4304C98.2616 64.7657 97.9719 65.1381 97.7241 65.5407L97.6984 65.5137C96.8383 64.6281 95.6498 64.0795 94.3371 64.0795C93.0245 64.0795 91.8358 64.628 90.9759 65.5137C90.1588 66.3555 89.6375 67.503 89.5875 68.7754H43.6463C43.5082 67.2985 42.2999 66.1436 40.8298 66.1436V66.1436ZM98.1269 71.9318C98.7317 71.1104 99.091 70.0863 99.091 68.9758C99.091 67.8653 98.7318 66.8413 98.1269 66.0199C98.3702 65.5947 98.6646 65.2038 99.0012 64.8569C100.024 63.8039 101.438 63.1519 103 63.1519C104.562 63.1519 105.976 63.804 106.999 64.8569C108.022 65.9106 108.655 67.3675 108.655 68.9759C108.655 70.5847 108.022 72.0413 106.999 73.0943C105.976 74.148 104.562 74.8 103 74.8C101.439 74.8 100.025 74.1479 99.0018 73.0943C98.6652 72.7477 98.3702 72.3571 98.1269 71.932V71.9318ZM97.4222 71.8614C96.9982 70.9936 96.7592 70.0135 96.7592 68.9757C96.7592 67.9383 96.9982 66.9581 97.4222 66.09C97.3775 66.0391 97.3311 65.9892 97.2839 65.9405C96.53 65.1642 95.4878 64.6834 94.3371 64.6834C93.1867 64.6834 92.1442 65.1642 91.3905 65.9405C90.6366 66.717 90.1698 67.7908 90.1698 68.9757C90.1698 70.1607 90.6366 71.2344 91.3905 72.0108C92.1442 72.7873 93.1866 73.2681 94.3371 73.2681C95.4877 73.2681 96.53 72.7873 97.2839 72.0108C97.3311 71.9622 97.3775 71.9124 97.4222 71.8614ZM97.8248 66.6259C97.5169 67.3446 97.3457 68.1399 97.3457 68.9758C97.3457 69.8121 97.5169 70.6069 97.8248 71.3257C98.2544 70.6508 98.5045 69.8433 98.5045 68.9758C98.5045 68.1085 98.2547 67.3009 97.8248 66.6259V66.6259Z" fill="white"/>
<path d="M147.482 25.1114C149.757 25.1114 151.842 25.6139 153.735 26.6276C155.623 27.6327 157.266 29.1072 158.66 31.0435C159.839 32.683 160.744 34.5122 161.387 36.5309C162.024 38.549 162.346 40.6091 162.346 42.7183C162.346 45.8901 161.697 48.8065 160.399 51.4762C159.106 54.1457 157.344 56.2628 155.116 57.82C154.844 58.0105 154.568 58.1897 154.289 58.357C158.32 55.3829 160.331 51.176 160.328 43.3034C160.325 32.0173 154.323 26.2008 148.184 25.9768C141.756 25.7422 135.177 31.6286 135.18 43.3034C135.182 51.2467 137.024 55.1724 140.931 58.1875C139.619 57.3719 138.432 56.339 137.371 55.0763C136.013 53.4616 134.953 51.5749 134.191 49.4162C133.429 47.266 133.048 45.0084 133.048 42.6604C133.048 39.5377 133.703 36.6295 135.019 33.9186C136.329 31.2163 138.092 29.0742 140.301 27.4924C142.504 25.9023 144.898 25.1113 147.483 25.1113L147.482 25.1114ZM146.666 26.1117C141.606 27.1484 137.053 35.42 137.053 43.503C137.053 52.1453 140.728 57.5778 144.728 59.7965C145.721 60.0381 146.746 60.1597 147.804 60.1597C148.773 60.1597 149.713 60.055 150.625 59.846C154.672 57.6763 158.649 51.2404 158.649 42.9705C158.649 34.701 153.899 27.3184 149.076 26.164H149.076C149.308 26.2284 149.543 26.3117 149.781 26.4129C150.424 26.6851 150.984 27.0474 151.472 27.5006C152.46 28.349 153.306 29.5027 154.003 30.9607C154.7 32.4109 155.236 34.1245 155.605 36.0854C155.98 38.0462 156.164 40.1554 156.164 42.4047C156.164 45.8817 155.825 48.8806 155.146 51.4017C154.461 53.931 153.484 55.8756 152.216 57.2347C150.942 58.5943 149.447 59.2699 147.726 59.2699C146.458 59.2699 145.303 58.8824 144.273 58.1082C143.237 57.342 142.349 56.2217 141.605 54.7465C140.86 53.2719 140.289 51.5252 139.896 49.4903C139.497 47.4551 139.3 45.1977 139.3 42.7179C139.3 40.7404 139.425 38.8949 139.675 37.1813C139.925 35.4676 140.295 33.9185 140.789 32.5263C141.283 31.1337 141.879 29.931 142.581 28.9177C143.218 27.9867 144.005 27.27 144.939 26.759C145.442 26.4903 145.96 26.2925 146.496 26.1662C146.544 26.1466 146.601 26.1284 146.666 26.1114L146.666 26.1117Z" fill="white"/>
<path d="M88.5918 24.0001C90.8666 24.0001 92.9509 24.5026 94.8444 25.5161C96.7321 26.5212 98.3757 27.9958 99.7694 29.932C100.948 31.5714 101.853 33.4007 102.497 35.4193C103.134 37.4375 103.455 39.4975 103.455 41.6067C103.455 44.7787 102.806 47.695 101.508 50.3646C100.216 53.0341 98.4532 55.1514 96.2258 56.7085C95.953 56.899 95.6775 57.0782 95.3984 57.2455C99.4294 54.2713 101.44 50.0646 101.438 42.192C101.435 30.9059 95.4321 25.0894 89.2935 24.8652C82.8653 24.6306 76.2866 30.5169 76.2897 42.192C76.2913 50.1351 78.1333 54.0607 82.0406 57.0761C80.7279 56.2604 79.541 55.2275 78.4805 53.9648C77.1226 52.35 76.0628 50.4634 75.3005 48.3047C74.5384 46.1544 74.1572 43.897 74.1572 41.549C74.1572 38.4262 74.8123 35.5179 76.1282 32.8073C77.4382 30.1049 79.2012 27.9629 81.4105 26.3809C83.6137 24.7909 86.0074 24 88.592 24L88.5918 24.0001ZM87.7752 25.0003C82.7154 26.0371 78.1625 34.3085 78.1625 42.3916C78.1625 51.034 81.8373 56.4664 85.8374 58.6851C86.8302 58.9266 87.8554 59.0483 88.9134 59.0483C89.8825 59.0483 90.8228 58.9435 91.7349 58.7345C95.7814 56.5651 99.7584 50.1291 99.7584 41.859C99.7584 33.5897 95.0085 26.207 90.185 25.0527H90.1852C90.4171 25.1171 90.6526 25.2004 90.8903 25.3016C91.5334 25.5736 92.0928 25.9361 92.5812 26.3891C93.5695 27.2378 94.4152 28.3914 95.1121 29.8495C95.8088 31.2997 96.3448 33.0133 96.7139 34.9741C97.0889 36.935 97.2736 39.0442 97.2736 41.2934C97.2736 44.7704 96.9345 47.7692 96.2556 50.2904C95.5707 52.8196 94.5938 54.7642 93.3256 56.1236C92.0513 57.4832 90.5566 58.1588 88.8358 58.1588C87.5669 58.1588 86.4119 57.7713 85.3818 56.9969C84.3459 56.2306 83.4584 55.1103 82.7139 53.6353C81.9694 52.1606 81.398 50.4138 81.0048 48.3789C80.6058 46.3439 80.4094 44.0864 80.4094 41.6066C80.4094 39.6291 80.5344 37.7836 80.7843 36.07C81.0347 34.3562 81.4039 32.8073 81.8982 31.4151C82.3922 30.0225 82.9878 28.8196 83.6905 27.8064C84.3277 26.8753 85.1138 26.1588 86.0486 25.6478C86.5514 25.3789 87.0696 25.1812 87.6049 25.0549C87.6531 25.0353 87.7098 25.0172 87.775 25.0002L87.7752 25.0003Z" fill="white"/>
<defs>
<filter id="filter0_bd_504_477" x="-6.68006" y="-10.6801" width="213.36" height="207.4" filterUnits="userSpaceOnUse" color-interpolation-filters="sRGB">
<feFlood flood-opacity="0" result="BackgroundImageFix"/>
<feGaussianBlur in="BackgroundImageFix" stdDeviation="5.34003"/>
<feComposite in2="SourceAlpha" operator="in" result="effect1_backgroundBlur_504_477"/>
<feColorMatrix in="SourceAlpha" type="matrix" values="0 0 0 0 0 0 0 0 0 0 0 0 0 0 0 0 0 0 127 0" result="hardAlpha"/>
<feOffset dy="3.05145"/>
<feGaussianBlur stdDeviation="1.52572"/>
<feComposite in2="hardAlpha" operator="out"/>
<feColorMatrix type="matrix" values="0 0 0 0 0 0 0 0 0 0 0 0 0 0 0 0 0 0 0.25 0"/>
<feBlend mode="normal" in2="effect1_backgroundBlur_504_477" result="effect2_dropShadow_504_477"/>
<feBlend mode="normal" in="SourceGraphic" in2="effect2_dropShadow_504_477" result="shape"/>
</filter>
</defs>
</svg>
