<svg width="62" height="62" viewBox="0 0 62 62" fill="none" xmlns="http://www.w3.org/2000/svg">
<g filter="url(#filter0_d_1_670)">
<circle cx="30.8344" cy="30.8344" r="19.8344" fill="url(#paint0_linear_1_670)"/>
</g>
<path d="M19.4489 42.229L20.5459 41.8795L26.1959 40.0793L26.285 40.3591L26.401 40.0818L26.401 40.0818L27.3286 40.4021L27.2049 40.4415C27.6565 40.6239 28.1201 40.7764 28.5925 40.8973L28.5117 41.2128L28.5925 40.8973C29.4943 41.1283 30.4219 41.2434 31.3535 41.2434C34.2886 41.2434 37.085 40.0961 39.1684 38.0264C41.2453 35.9633 42.4097 33.1847 42.4097 30.2537C42.4097 27.322 41.2465 24.5423 39.1699 22.4779C37.0874 20.4076 34.2917 19.2593 31.3568 19.2593C28.4209 19.2593 25.6236 20.4063 23.5393 22.4763C21.4619 24.5395 20.2973 27.3185 20.2973 30.25C20.2973 31.2464 20.4326 32.238 20.7007 33.1974L19.4489 42.229ZM19.4489 42.229L21.6459 35.7321L21.6915 35.5973L21.6235 35.4723C21.2318 34.7515 20.9216 33.9879 20.7007 33.1974L19.4489 42.229Z" fill="#F1F1F1" stroke="#F1F1F1" stroke-width="0.651364"/>
<mask id="mask0_1_670" style="mask-type:alpha" maskUnits="userSpaceOnUse" x="24" y="24" width="14" height="13">
<path fill-rule="evenodd" clip-rule="evenodd" d="M29.4347 27.0534C29.3864 26.9552 29.1077 26.2758 28.8508 25.6495C28.6866 25.2492 28.53 24.8674 28.4993 24.7936C28.21 24.0973 27.8903 24.1183 27.645 24.1344C27.6289 24.1355 27.6134 24.1365 27.5927 24.1365C27.5071 24.1365 27.423 24.1311 27.3359 24.1255C27.2269 24.1186 27.1138 24.1113 27.0069 24.1113C26.8648 24.1113 26.6712 24.1411 26.4674 24.2374C26.3163 24.3088 26.1603 24.4163 26.0176 24.5746C25.9968 24.5973 25.9811 24.6139 25.9641 24.632C25.6245 24.9923 24.8843 25.7776 24.8843 27.286C24.8843 28.8682 26.0146 30.3728 26.1807 30.5938L26.1802 30.5942L26.1817 30.5963L26.1836 30.5982C26.1901 30.6066 26.2141 30.6421 26.2495 30.6944C26.667 31.3107 28.5861 34.1438 31.5036 35.294C34.1503 36.3364 34.6292 36.2194 35.057 36.1149C35.1298 36.0972 35.2009 36.0798 35.2778 36.0726C35.6242 36.0397 36.1909 35.8004 36.6678 35.4642C37.0635 35.1854 37.4088 34.833 37.541 34.4619C37.659 34.1301 37.7257 33.8219 37.7566 33.5682C37.8015 33.1997 37.7659 32.9098 37.6995 32.7978L37.6986 32.7968C37.5976 32.6289 37.4229 32.5456 37.1608 32.4207C37.1146 32.3987 37.0652 32.3752 37.0177 32.352L37.0179 32.3516C36.8372 32.2589 36.2119 31.9503 35.6775 31.6953C35.3322 31.5305 35.0253 31.389 34.9038 31.345C34.7329 31.283 34.584 31.2362 34.4243 31.2543C34.2433 31.2749 34.0853 31.369 33.939 31.5928L33.9385 31.5925C33.865 31.704 33.7355 31.8711 33.594 32.0462C33.3698 32.3234 33.1023 32.6346 32.9883 32.7653V32.7663C32.9397 32.8222 32.8977 32.8527 32.8565 32.8577C32.7994 32.8646 32.7209 32.841 32.6122 32.7871C32.5427 32.752 32.475 32.7225 32.3915 32.6861C31.9688 32.5021 31.1456 32.1436 30.2075 31.3051C29.8719 31.0053 29.5766 30.6776 29.3299 30.37C28.9307 29.8723 28.6609 29.4289 28.5537 29.2421C28.4691 29.0956 28.5631 29.0007 28.6499 28.913L28.6495 28.9125C28.7455 28.8158 28.8541 28.684 28.9631 28.5517C29.0127 28.4915 29.0624 28.4312 29.1228 28.361L29.1237 28.3601C29.2707 28.1875 29.3317 28.0618 29.414 27.8922C29.4283 27.8627 29.4433 27.8318 29.4584 27.8014L29.4593 27.8004C29.5317 27.6533 29.5502 27.5133 29.5367 27.3822C29.5242 27.2601 29.4837 27.1511 29.4343 27.0535L29.4347 27.0534L29.4347 27.0534Z" fill="#FFFFFE"/>
</mask>
<g mask="url(#mask0_1_670)">
<path fill-rule="evenodd" clip-rule="evenodd" d="M37.6434 33.3923C37.6434 30.3491 36.4124 27.5936 34.4221 25.5988C32.432 23.6043 29.6835 22.3706 26.6483 22.3706C23.6104 22.3706 20.8606 23.6038 18.8696 25.5973C16.8777 27.5917 15.646 30.3466 15.646 33.3885C15.646 34.4096 15.7859 35.4005 16.047 36.3422C16.3064 37.2779 16.6859 38.1638 17.1669 38.9815L15.2614 44.6625L15.1108 45.1116L15.5584 44.9679L21.4192 43.0852C22.1952 43.5067 23.0254 43.837 23.8969 44.0621C24.775 44.2888 25.6953 44.4092 26.6447 44.4092C29.6812 44.4092 32.4302 43.1759 34.4207 41.1825C36.412 39.1883 37.6434 36.4337 37.6434 33.3923L37.6434 33.3923Z" fill="#36CF45"/>
</g>
<defs>
<filter id="filter0_d_1_670" x="0.319937" y="0.319937" width="61.0289" height="61.0291" filterUnits="userSpaceOnUse" color-interpolation-filters="sRGB">
<feFlood flood-opacity="0" result="BackgroundImageFix"/>
<feColorMatrix in="SourceAlpha" type="matrix" values="0 0 0 0 0 0 0 0 0 0 0 0 0 0 0 0 0 0 127 0" result="hardAlpha"/>
<feOffset/>
<feGaussianBlur stdDeviation="5.34003"/>
<feComposite in2="hardAlpha" operator="out"/>
<feColorMatrix type="matrix" values="0 0 0 0 0.211765 0 0 0 0 0.811765 0 0 0 0 0.270588 0 0 0 1 0"/>
<feBlend mode="normal" in2="BackgroundImageFix" result="effect1_dropShadow_1_670"/>
<feBlend mode="normal" in="SourceGraphic" in2="effect1_dropShadow_1_670" result="shape"/>
</filter>
<linearGradient id="paint0_linear_1_670" x1="20.3952" y1="38.1418" x2="47.0151" y2="20.3952" gradientUnits="userSpaceOnUse">
<stop offset="0.0499999" stop-color="#28BA38"/>
<stop offset="1" stop-color="#41DE4F"/>
</linearGradient>
</defs>
</svg>
